<svg width="24" height="24" viewBox="0 0 24 24" fill="none" xmlns="http://www.w3.org/2000/svg">
<path fill-rule="evenodd" clip-rule="evenodd" d="M7.99963 7C7.99963 4.79086 9.79049 3 11.9996 3C14.2088 3 15.9996 4.79086 15.9996 7C15.9996 9.20914 14.2088 11 11.9996 11C9.79049 11 7.99963 9.20914 7.99963 7ZM11.9996 1C8.68593 1 5.99963 3.68629 5.99963 7C5.99963 10.3137 8.68593 13 11.9996 13C15.3133 13 17.9996 10.3137 17.9996 7C17.9996 3.68629 15.3133 1 11.9996 1ZM7 14.9457C5.43127 14.9457 3.91344 15.5244 2.78357 16.5749C1.65124 17.6276 1 19.0717 1 20.5942V22.9185C1 23.4708 1.44772 23.9185 2 23.9185C2.55228 23.9185 3 23.4708 3 22.9185V20.5942C3 19.6511 3.40233 18.7304 4.14536 18.0396C4.89085 17.3466 5.91656 16.9457 7 16.9457H17C18.0834 16.9457 19.1091 17.3466 19.8546 18.0396C20.5977 18.7304 21 19.6511 21 20.5942V22.9185C21 23.4708 21.4477 23.9185 22 23.9185C22.5523 23.9185 23 23.4708 23 22.9185V20.5942C23 19.0717 22.3488 17.6276 21.2164 16.5749C20.0866 15.5244 18.5687 14.9457 17 14.9457H7Z" fill="#141C36"/>
</svg>
