<svg width="142" height="41" viewBox="0 0 142 41" fill="none" xmlns="http://www.w3.org/2000/svg">
<g clip-path="url(#clip0_4148_9674)">
<path fill-rule="evenodd" clip-rule="evenodd" d="M120.985 1.88719L128.579 6.24122C129.181 6.58624 129.181 7.44866 128.579 7.79368L120.985 12.1477C120.383 12.4926 119.632 12.0614 119.632 11.3715V2.66342C119.632 1.97349 120.383 1.54228 120.985 1.88719ZM35.8198 16.5029V33.5713C35.8198 33.9513 36.1301 34.2596 36.5128 34.2596H39.1062C39.4901 34.2596 39.8004 33.9513 39.8004 33.5713V16.5029C39.8004 16.1217 39.4901 15.8135 39.1062 15.8135H36.5128C36.1301 15.8135 35.8198 16.1217 35.8198 16.5029ZM37.8096 12.9359C39.1361 12.9359 40.1491 11.9298 40.1491 10.5438C40.1491 9.12182 39.1361 8.11587 37.8096 8.11587C36.4831 8.11587 35.4702 9.12182 35.4702 10.5438C35.4702 11.9298 36.4831 12.9359 37.8096 12.9359ZM20.858 29.3678V33.5713C20.858 33.9513 20.5477 34.2596 20.1649 34.2596H17.5364C17.1537 34.2596 16.8433 33.9513 16.8433 33.5713V9.22113C16.8433 8.83998 17.1537 8.53177 17.5364 8.53177H20.1649C20.5477 8.53177 20.858 8.83998 20.858 9.22113V22.8028C20.858 23.2662 21.4235 23.4964 21.7518 23.1671L28.8596 16.0183C28.9893 15.8874 29.1667 15.8135 29.3528 15.8135H32.0483C32.6585 15.8135 32.971 16.5397 32.5501 16.9779L27.1728 22.5621C26.9506 22.7934 26.9177 23.1459 27.0931 23.414L33.4981 33.1955C33.7979 33.6537 33.4673 34.2596 32.9168 34.2596H29.8269C29.5899 34.2596 29.3698 34.1403 29.2422 33.9419L24.4782 26.5418C24.2348 26.1651 23.7003 26.1144 23.391 26.4385L21.0482 28.8949C20.926 29.0226 20.858 29.1915 20.858 29.3678ZM13.9535 18.0609L13.1702 19.6349C12.9065 20.1648 12.4771 20.2841 12.1263 20.1014C10.6106 19.3087 8.85365 18.8305 7.41869 18.8305C5.84772 18.8305 4.69552 19.3499 4.69552 20.6684C4.69552 22.0811 6.4042 22.5886 8.39786 23.1808C11.1982 24.0126 14.5607 25.0114 14.5402 28.9203C14.5402 32.6994 11.1538 34.3989 7.41869 34.3989C4.89322 34.3989 2.21889 33.6231 0.367368 32.1842C0.114366 31.9868 0.0495463 31.6301 0.192961 31.3439L0.996526 29.7479C1.18582 29.3731 1.66407 29.2443 2.00944 29.486C3.60817 30.6103 5.81591 31.2774 7.59298 31.2774C9.30434 31.2774 10.6309 30.6884 10.6309 29.3013C10.6309 27.6781 8.82763 27.1424 6.77274 26.5319C4.04322 25.721 0.869812 24.7781 0.889169 20.9798C0.889169 17.2354 4.17149 15.6404 7.73226 15.6404C9.84113 15.6404 12.0625 16.2041 13.7079 17.1785C14.0002 17.3516 14.1044 17.757 13.9535 18.0609ZM43.0805 33.5713V9.22113C43.0805 8.83998 43.3913 8.53177 43.7748 8.53177H46.4024C46.7848 8.53177 47.0951 8.83998 47.0951 9.22113V33.5713C47.0951 33.9513 46.7848 34.2596 46.4024 34.2596H43.7748C43.3913 34.2596 43.0805 33.9513 43.0805 33.5713ZM50.8657 9.22113V33.5713C50.8657 33.9513 51.176 34.2596 51.5588 34.2596H54.1875C54.5699 34.2596 54.8803 33.9513 54.8803 33.5713V9.22113C54.8803 8.83998 54.5699 8.53177 54.1875 8.53177H51.5588C51.176 8.53177 50.8657 8.83998 50.8657 9.22113ZM71.5732 18.0647L70.7046 19.8107C70.5295 20.1634 70.0977 20.2847 69.7482 20.101C68.2321 19.3083 66.4754 18.8301 65.0394 18.8301C63.4685 18.8301 62.3171 19.3506 62.3171 20.6679C62.3171 22.0812 64.0263 22.5888 66.0202 23.181C68.8203 24.0127 72.1824 25.0113 72.1621 28.9198C72.1621 32.7 68.7754 34.3985 65.0394 34.3985C62.5148 34.3985 59.8397 33.6237 57.9891 32.1838C57.7351 31.9865 57.67 31.6307 57.8148 31.3435L58.6182 29.7485C58.8064 29.3727 59.2857 29.2438 59.6301 29.4857C61.2298 30.6099 63.4367 31.2781 65.2149 31.2781C66.9248 31.2781 68.2517 30.688 68.2517 29.302C68.2517 27.6783 66.4478 27.1423 64.393 26.5315C61.6639 25.7204 58.491 24.7775 58.511 20.9794C58.511 17.235 61.7934 15.64 65.3539 15.64C67.4628 15.64 69.6831 16.2037 71.3287 17.178C71.6218 17.3512 71.7241 17.7607 71.5732 18.0647ZM83.7158 31.0696C80.3644 31.0696 78.0253 28.6427 78.0253 25.0715C78.0253 21.5351 80.3644 19.1072 83.7158 19.1072C87.0323 19.1072 89.3718 21.5351 89.3718 25.0715C89.3718 28.6427 87.0323 31.0696 83.7158 31.0696ZM83.7158 34.399C89.4419 34.399 93.3876 30.5851 93.3876 25.0367C93.3876 19.4545 89.4419 15.6753 83.7158 15.6753C77.9548 15.6753 74.0107 19.4545 74.0107 25.0367C74.0107 30.5851 77.9548 34.399 83.7158 34.399ZM101.241 14.3229V15.8186C101.241 16.1987 101.551 16.507 101.934 16.507H105.4C105.782 16.507 106.093 16.8152 106.093 17.1963V18.8008C106.093 19.1809 105.782 19.4891 105.4 19.4891H101.934C101.551 19.4891 101.241 19.7974 101.241 20.1774V33.5712C101.241 33.9512 100.93 34.2595 100.548 34.2595H97.9543C97.5704 34.2595 97.2604 33.9512 97.2604 33.5712V20.1774C97.2604 19.7974 96.9497 19.4891 96.5665 19.4891H95.5094C95.1267 19.4891 94.8167 19.1809 94.8167 18.8008V17.1963C94.8167 16.8152 95.1267 16.507 95.5094 16.507H96.5665C96.9497 16.507 97.2604 16.1987 97.2604 15.8186V14.7039C97.2604 10.4043 100.437 8.35859 103.649 8.35859C104.942 8.35859 106.234 8.66779 107.326 9.3065C107.618 9.47642 107.715 9.88711 107.564 10.1868L106.644 12.0131C106.468 12.3637 106.039 12.4976 105.689 12.3193C105.063 12.0004 104.38 11.8263 103.755 11.8263C102.391 11.8263 101.241 12.5895 101.241 14.3229ZM119.217 33.3744C119.525 33.2128 119.664 32.8424 119.554 32.5129L118.971 30.7564C118.846 30.3774 118.419 30.1832 118.048 30.3362C117.267 30.6583 116.592 30.8272 115.937 30.8272C114.681 30.8272 113.948 30.238 113.948 28.3305V20.1779C113.948 19.7979 114.257 19.4886 114.64 19.4886H118.735C119.118 19.4886 119.429 19.1803 119.429 18.8003V17.1958C119.429 16.8158 119.118 16.5074 118.735 16.5074H114.64C114.257 16.5074 113.948 16.1992 113.948 15.8181V12.1329C113.948 11.7529 113.637 11.4447 113.255 11.4447H110.661C110.278 11.4447 109.968 11.7529 109.968 12.1329V15.8181C109.968 16.1992 109.657 16.5074 109.274 16.5074H108.043C107.659 16.5074 107.349 16.8158 107.349 17.1958V18.8003C107.349 19.1803 107.659 19.4886 108.043 19.4886H109.274C109.657 19.4886 109.968 19.7979 109.968 20.1779V29.059C109.968 32.8381 112.377 34.4331 115.17 34.4331C116.554 34.4331 117.91 34.0563 119.217 33.3744ZM140.931 6.24122L133.337 1.88719C132.735 1.54228 131.983 1.97349 131.983 2.66342V11.3715C131.983 12.0614 132.735 12.4926 133.337 12.1477L140.931 7.79368C141.532 7.44866 141.532 6.58624 140.931 6.24122ZM127.168 12.5541L134.762 16.9081C135.363 17.253 135.363 18.1155 134.762 18.4605L127.168 22.8145C126.566 23.1594 125.814 22.7282 125.814 22.0383V13.3302C125.814 12.6403 126.566 12.2091 127.168 12.5541ZM122.972 31.8981H122.646V31.2218H122.972C123.041 31.2218 123.109 31.2231 123.178 31.2278C123.246 31.2317 123.308 31.2438 123.363 31.2663C123.419 31.2906 123.464 31.3239 123.497 31.3702C123.532 31.4152 123.55 31.478 123.55 31.5576C123.55 31.6372 123.532 31.6987 123.497 31.7449C123.464 31.7891 123.419 31.8237 123.363 31.8462C123.308 31.8688 123.246 31.8842 123.178 31.8895C123.109 31.8951 123.041 31.8981 122.972 31.8981ZM123.138 30.8461H122.2V33.261H122.646V32.2729H122.972L123.578 33.261H124.047L123.419 32.2387C123.584 32.2193 123.722 32.157 123.832 32.0505C123.941 31.9453 123.996 31.7865 123.996 31.574C123.996 31.3395 123.925 31.159 123.787 31.0353C123.647 30.9089 123.43 30.8461 123.138 30.8461ZM121.405 32.7434C121.313 32.5321 121.267 32.3063 121.267 32.0686C121.267 31.8293 121.313 31.6047 121.405 31.3927C121.496 31.1799 121.622 30.9954 121.78 30.8374C121.938 30.6812 122.124 30.5566 122.337 30.4662C122.55 30.3753 122.777 30.329 123.017 30.329C123.258 30.329 123.484 30.3753 123.698 30.4662C123.912 30.5566 124.097 30.6812 124.257 30.8374C124.414 30.9954 124.54 31.1799 124.631 31.3927C124.722 31.6047 124.768 31.8293 124.768 32.0686C124.768 32.3063 124.722 32.5321 124.631 32.7434C124.54 32.9558 124.414 33.1398 124.257 33.2977C124.097 33.4548 123.912 33.579 123.698 33.6695C123.484 33.7608 123.258 33.8067 123.017 33.8067C122.777 33.8067 122.55 33.7608 122.337 33.6695C122.124 33.579 121.938 33.4548 121.78 33.2977C121.622 33.1398 121.496 32.9558 121.405 32.7434ZM121.058 31.2472C120.946 31.5026 120.889 31.7766 120.889 32.0686C120.889 32.3595 120.946 32.633 121.058 32.8892C121.171 33.1445 121.323 33.3678 121.515 33.5595C121.709 33.7508 121.933 33.902 122.192 34.0131C122.449 34.1256 122.725 34.181 123.017 34.181C123.311 34.181 123.587 34.1256 123.844 34.0131C124.102 33.902 124.326 33.7508 124.52 33.5595C124.713 33.3678 124.865 33.1445 124.977 32.8892C125.089 32.633 125.146 32.3595 125.146 32.0686C125.146 31.7766 125.089 31.5026 124.977 31.2472C124.865 30.9915 124.713 30.7677 124.52 30.5765C124.326 30.3848 124.102 30.2337 123.844 30.1221C123.587 30.0108 123.311 29.955 123.017 29.955C122.725 29.955 122.449 30.0108 122.192 30.1221C121.933 30.2337 121.709 30.3848 121.515 30.5765C121.323 30.7677 121.171 30.9915 121.058 31.2472Z" fill="#141C36"/>
</g>
<defs>
<clipPath id="clip0_4148_9674">
<rect width="141.381" height="40.6134" fill="white"/>
</clipPath>
</defs>
</svg>
