<svg width="103" height="39" viewBox="0 0 103 39" fill="none" xmlns="http://www.w3.org/2000/svg">
<path d="M5.40174 8.60727L5.09721 9.22702C4.99303 9.43538 4.82741 9.48347 4.6885 9.41134C4.09546 9.0988 3.4116 8.9118 2.85062 8.9118C2.23621 8.9118 1.78742 9.11482 1.78742 9.63306C1.78742 10.9687 5.64483 10.2475 5.63148 12.8761C5.63148 14.3613 4.30917 15.0292 2.85062 15.0292C1.86489 15.0292 0.8204 14.7246 0.0964681 14.1583C-0.00237138 14.0808 -0.0264134 13.9393 0.0296847 13.8271L0.342231 13.1993C0.417028 13.0524 0.604022 13.0016 0.737589 13.0951C1.36268 13.5359 2.22285 13.8003 2.9174 13.8003C3.61195 13.8003 4.10347 13.5679 4.10347 13.023C4.10347 11.5377 0.286133 12.3685 0.29949 9.7506C0.29949 8.2787 1.58173 7.65093 2.97083 7.65093C3.7936 7.65093 4.66178 7.87265 5.3029 8.25465C5.41777 8.32144 5.45784 8.48172 5.39907 8.60193L5.40174 8.60727ZM8.09445 13.047C8.09445 12.9776 8.12116 12.9108 8.16925 12.86L9.08284 11.8957C9.20305 11.7675 9.41142 11.7888 9.50759 11.9358L11.3668 14.8448C11.4176 14.9223 11.5031 14.9704 11.5939 14.9704H12.8013C13.0151 14.9704 13.1459 14.7326 13.0284 14.551L10.528 10.7069C10.4586 10.6028 10.4719 10.4638 10.5601 10.373L12.6598 8.17718C12.8254 8.00622 12.7025 7.72039 12.4648 7.72039H11.4123C11.3401 7.72039 11.2707 7.74977 11.2199 7.80053L8.4444 10.6108C8.31617 10.739 8.09445 10.6508 8.09445 10.4665V5.13186C8.09445 4.98227 7.97424 4.86206 7.82465 4.86206H6.79885C6.64926 4.86206 6.52905 4.98227 6.52905 5.13186V14.7033C6.52905 14.8529 6.64926 14.9731 6.79885 14.9731H7.82465C7.97424 14.9731 8.09445 14.8529 8.09445 14.7033V13.0497V13.047ZM15.6303 5.65277C15.6303 5.09446 15.2349 4.6991 14.7167 4.6991C14.1985 4.6991 13.8031 5.09446 13.8031 5.65277C13.8031 6.21108 14.1985 6.59308 14.7167 6.59308C15.2349 6.59308 15.6303 6.19772 15.6303 5.65277ZM13.9393 14.7059C13.9393 14.8555 14.0595 14.9757 14.2091 14.9757H15.2216C15.3712 14.9757 15.4914 14.8555 15.4914 14.7059V7.99553C15.4914 7.84594 15.3712 7.72573 15.2216 7.72573H14.2091C14.0595 7.72573 13.9393 7.84594 13.9393 7.99553V14.7059ZM16.7736 14.7059C16.7736 14.8555 16.8938 14.9757 17.0434 14.9757H18.0692C18.2188 14.9757 18.339 14.8555 18.339 14.7059V5.13186C18.339 4.98227 18.2188 4.86206 18.0692 4.86206H17.0434C16.8938 4.86206 16.7736 4.98227 16.7736 5.13186V14.7033V14.7059ZM19.8136 14.7033C19.8136 14.8529 19.9338 14.9731 20.0834 14.9731H21.1092C21.2588 14.9731 21.379 14.8529 21.379 14.7033V5.13186C21.379 4.98227 21.2588 4.86206 21.1092 4.86206H20.0834C19.9338 4.86206 19.8136 4.98227 19.8136 5.13186V14.7033ZM27.8971 8.60727C27.9558 8.48706 27.9158 8.32678 27.8009 8.26C27.1598 7.878 26.2916 7.65627 25.4688 7.65627C24.0797 7.65627 22.7975 8.28404 22.7975 9.75594C22.7841 12.3739 26.6015 11.5404 26.6015 13.0283C26.6015 13.5733 26.0832 13.8057 25.4154 13.8057C24.7476 13.8057 23.8607 13.5439 23.2356 13.1005C23.102 13.0043 22.915 13.055 22.8402 13.2046L22.5277 13.8324C22.4716 13.9446 22.4956 14.0862 22.5945 14.1637C23.3157 14.73 24.3602 15.0345 25.3459 15.0345C26.8045 15.0345 28.1268 14.3667 28.1268 12.8814C28.1402 10.2501 24.2828 10.9741 24.2828 9.63841C24.2828 9.12017 24.7315 8.91714 25.3459 8.91714C25.9069 8.91714 26.5935 9.10414 27.1838 9.41669C27.3201 9.48881 27.4884 9.44073 27.5578 9.30182L27.8971 8.61528V8.60727ZM36.4133 11.3561C36.4133 9.16291 34.8719 7.67497 32.6387 7.67497C30.4055 7.67497 28.8507 9.16024 28.8507 11.3561C28.8507 13.5519 30.3894 15.0372 32.6387 15.0372C34.888 15.0372 36.4133 13.5386 36.4133 11.3561ZM30.4161 11.3694C30.4161 9.98034 31.3297 9.024 32.6387 9.024C33.9476 9.024 34.8479 9.97767 34.8479 11.3694C34.8479 12.7612 33.9343 13.7282 32.6387 13.7282C31.3431 13.7282 30.4161 12.7746 30.4161 11.3694ZM39.48 7.14338C39.48 6.46219 39.9288 6.163 40.4604 6.163C40.7035 6.163 40.9706 6.23245 41.2164 6.358C41.3526 6.42746 41.5209 6.3767 41.5903 6.23779L41.9483 5.5192C42.0071 5.40167 41.9697 5.23871 41.8548 5.17193C41.4274 4.92082 40.9252 4.80061 40.4203 4.80061C39.1674 4.80061 37.9253 5.60469 37.9253 7.29564V7.73374C37.9253 7.88334 37.8051 8.00355 37.6555 8.00355H37.2414C37.0918 8.00355 36.9716 8.12376 36.9716 8.27335V8.90379C36.9716 9.05338 37.0918 9.17359 37.2414 9.17359H37.6555C37.8051 9.17359 37.9253 9.2938 37.9253 9.4434V14.7086C37.9253 14.8582 38.0455 14.9784 38.1951 14.9784H39.2075C39.3571 14.9784 39.4773 14.8582 39.4773 14.7086V9.43806C39.4773 9.28846 39.5975 9.16825 39.7471 9.16825H41.1015C41.2511 9.16825 41.3713 9.04804 41.3713 8.89845V8.26801C41.3713 8.11841 41.2511 7.99821 41.1015 7.99821H39.7471C39.5975 7.99821 39.4773 7.878 39.4773 7.7284V7.14071L39.48 7.14338ZM46.3987 13.6C46.3507 13.4504 46.1824 13.3756 46.0381 13.4344C45.7336 13.5599 45.4691 13.6267 45.2153 13.6267C44.7238 13.6267 44.438 13.3943 44.438 12.6463V9.44073C44.438 9.29113 44.5582 9.17092 44.7078 9.17092H46.3053C46.4548 9.17092 46.5751 9.05071 46.5751 8.90112V8.27068C46.5751 8.12109 46.4548 8.00088 46.3053 8.00088H44.7078C44.5582 8.00088 44.438 7.88067 44.438 7.73107V6.28321C44.438 6.13361 44.3178 6.0134 44.1682 6.0134H43.1557C43.0062 6.0134 42.8859 6.13361 42.8859 6.28321V7.73107C42.8859 7.88067 42.7657 8.00088 42.6161 8.00088H42.1353C41.9857 8.00088 41.8655 8.12109 41.8655 8.27068V8.90112C41.8655 9.05071 41.9857 9.17092 42.1353 9.17092H42.6161C42.7657 9.17092 42.8859 9.2938 42.8859 9.44073V12.9322C42.8859 14.4174 43.8263 15.0452 44.9162 15.0452C45.4558 15.0452 45.9847 14.8983 46.4976 14.6285C46.6178 14.5644 46.6712 14.4201 46.6285 14.2892L46.4014 13.6H46.3987ZM46.6579 2.55669V5.97867C46.6579 6.25115 46.9517 6.41944 47.1868 6.28321L50.152 4.57088C50.3871 4.43464 50.3871 4.09538 50.152 3.96181L47.1895 2.24949C46.9544 2.11325 46.6605 2.28422 46.6605 2.55402L46.6579 2.55669ZM51.4796 2.55669V5.97867C51.4796 6.25115 51.7735 6.41944 52.0086 6.28321L54.9737 4.57088C55.2088 4.43464 55.2088 4.09538 54.9737 3.96181L52.0112 2.24949C51.7762 2.11325 51.4823 2.28422 51.4823 2.55402L51.4796 2.55669ZM49.0701 6.75069V10.1727C49.0701 10.4451 49.3639 10.6134 49.599 10.4772L52.5642 8.76488C52.7993 8.62864 52.7993 8.28938 52.5642 8.15581L49.599 6.44349C49.3639 6.30725 49.0701 6.47821 49.0701 6.74802V6.75069Z" fill="#141C36"/>
<path fill-rule="evenodd" clip-rule="evenodd" d="M71.3845 14.1751C71.8573 14.1741 72.2652 14.3446 72.6082 14.6861C72.9513 15.0281 73.1234 15.4353 73.1244 15.9083C73.1252 16.3813 72.9547 16.7891 72.613 17.132C72.2712 17.4748 71.8641 17.647 71.3911 17.6478C70.9181 17.6488 70.5106 17.4782 70.1676 17.1368C69.8246 16.7951 69.6524 16.3882 69.6516 15.9149C69.6506 15.4419 69.8212 15.0341 70.163 14.6909C70.5046 14.348 70.9115 14.1759 71.3845 14.1751ZM99.9157 26.6453C99.9157 24.1732 98.2967 22.4477 95.9837 22.4477C93.6443 22.4477 92.0245 24.1989 91.9989 26.6453C92.0245 29.1182 93.6187 30.8693 95.9837 30.8693C98.2967 30.8693 99.9157 29.1182 99.9157 26.6453ZM102.847 32.5179C102.847 36.4584 100.044 38.9304 95.7518 38.9304C93.7887 38.9304 92.0426 38.3633 90.4748 37.3901C90.247 37.2479 90.1794 36.9445 90.3155 36.713L91.0574 35.4538C91.2001 35.2116 91.5178 35.1306 91.7522 35.286C92.9107 36.0541 94.1345 36.484 95.6231 36.484C98.22 36.484 99.9157 34.9644 99.9157 32.5948V32.2534C99.9157 31.8276 99.4066 31.5845 99.0947 31.8739C98.1754 32.7279 96.9269 33.1876 95.392 33.1876C91.6903 33.1876 89.223 30.5088 89.223 26.5684C89.223 22.7049 91.6647 20.0782 95.2889 20.0525C96.87 20.0335 98.1473 20.5064 99.0881 21.3746C99.4033 21.6648 99.9157 21.4167 99.9157 20.9885V20.6544C99.9157 20.3791 100.139 20.1551 100.414 20.1551H102.348C102.623 20.1551 102.847 20.3791 102.847 20.6544V32.5179ZM87.353 32.668V25.0583C87.353 21.957 85.5667 20.052 82.5729 20.052C80.9315 20.052 79.5931 20.4981 78.6414 21.4952C78.35 21.801 77.8416 21.5924 77.8416 21.1675V20.6227C77.8416 20.3616 77.6316 20.1492 77.3735 20.1492H75.533C75.2749 20.1492 75.0649 20.3616 75.0649 20.6227V32.668C75.0649 32.9291 75.2749 33.1415 75.533 33.1415H77.3735C77.6316 33.1415 77.8416 32.9291 77.8416 32.668V26.2616C77.8416 26.2412 77.8424 26.2193 77.8447 26.1989C78.0486 24.1881 79.373 22.7143 81.4864 22.69C83.4176 22.69 84.577 23.8855 84.577 25.8399V32.668C84.577 32.9291 84.7863 33.1415 85.0451 33.1415H86.8849C87.1438 33.1415 87.353 32.9291 87.353 32.668ZM67.5851 25.0583V32.668C67.5851 32.9291 67.3759 33.1415 67.117 33.1415H65.2772C65.0184 33.1415 64.8091 32.9291 64.8091 32.668V25.8399C64.8091 23.8855 63.6498 22.69 61.7185 22.69C59.6051 22.7143 58.2807 24.1881 58.0768 26.1989C58.0745 26.2193 58.0737 26.2412 58.0737 26.2616V32.668C58.0737 32.9291 57.8637 33.1415 57.6057 33.1415H55.7651C55.507 33.1415 55.297 32.9291 55.297 32.668V15.28C55.297 15.019 55.507 14.8065 55.7651 14.8065H57.6057C57.8637 14.8065 58.0737 15.019 58.0737 15.28V21.1675C58.0737 21.5924 58.5821 21.801 58.8735 21.4952C59.8252 20.4981 61.1636 20.052 62.805 20.052C65.7988 20.052 67.5851 21.957 67.5851 25.0583ZM37.0973 27.8152V28.5345C36.9516 29.9444 35.4238 30.9891 33.4342 30.9891C31.8822 30.9891 30.9361 30.2362 30.9361 29.069C30.9361 27.8292 31.7849 27.3439 33.604 27.3439H36.6269C36.887 27.3439 37.0973 27.5546 37.0973 27.8152ZM36.3621 32.2226C36.6791 31.9909 37.1214 32.1992 37.1214 32.5925V32.6081C37.1214 32.8687 37.3324 33.0793 37.5917 33.0793H39.3913C39.6514 33.0793 39.8617 32.8671 39.8609 32.6065L39.8383 24.5975C39.8142 21.7536 37.946 20.052 34.6233 20.052C32.3627 20.052 31.0723 20.5279 29.4768 21.4416C29.2502 21.5711 29.1754 21.8637 29.307 22.0884L29.9611 23.2041C30.0966 23.4342 30.3918 23.499 30.6199 23.3601C31.7677 22.6618 32.9117 22.3123 34.0167 22.3123C36.0538 22.3123 37.0973 23.2852 37.0973 24.9135V25.3021H33.192C30.0873 25.3263 28.3165 26.8329 28.3165 29.1907C28.3165 31.4752 30.0631 33.201 32.8525 33.201C34.2713 33.201 35.4658 32.878 36.3621 32.2226ZM24.8752 21.9304C23.5618 20.6743 21.9226 20.0483 19.957 20.052C17.9911 20.0555 16.3543 20.6878 15.0462 21.9488C13.7381 23.2092 13.0861 24.7493 13.0899 26.5691C13.0935 28.3894 13.7516 29.927 15.0645 31.1827C16.3777 32.4384 18.0171 33.0642 19.9829 33.0608C21.9486 33.057 23.5852 32.425 24.8935 31.1644C26.2014 29.9038 26.8538 28.3638 26.8502 26.5435C26.8466 24.7238 26.1879 23.186 24.8752 21.9304ZM17.003 23.5829C17.7794 22.8138 18.7656 22.4282 19.9617 22.4258C21.1572 22.4237 22.1452 22.8056 22.9247 23.572C23.7043 24.3382 24.0956 25.3303 24.098 26.5486C24.1004 27.7675 23.7132 28.761 22.9367 29.5301C22.1601 30.2994 21.1737 30.6846 19.9782 30.6868C18.7821 30.6889 17.7943 30.3074 17.015 29.5412C16.2352 28.775 15.8441 27.7829 15.8417 26.564C15.8392 25.3457 16.2263 24.352 17.003 23.5829ZM11.5464 21.6801C10.2697 20.5915 8.74615 20.0487 6.97528 20.052C5.02723 20.0557 3.37653 20.6671 2.02397 21.8864C0.670819 23.1053 -0.00345865 24.6851 0.000324824 26.6253C0.00414015 28.5655 0.656222 30.1344 1.95719 31.3323C3.25815 32.5309 4.80967 33.1278 6.61134 33.1245C8.5044 33.1209 10.1911 32.4605 11.671 31.1433C11.8922 30.9464 11.8984 30.6038 11.696 30.3883L10.8288 29.465C10.6304 29.2538 10.2913 29.2272 10.0737 29.4192C9.11469 30.2653 8.10067 30.6888 7.03266 30.6908C5.82328 30.6931 4.80427 30.2896 3.97462 29.4799C3.14517 28.6707 2.72925 27.6814 2.72685 26.5126C2.72465 25.3439 3.14037 24.3889 3.97542 23.6478C4.80967 22.9067 5.79509 22.5351 6.93128 22.5331C7.9255 22.5311 8.91432 22.8945 9.89754 23.6233C10.1363 23.8002 10.4716 23.7731 10.6602 23.5455L11.5988 22.4126C11.7804 22.1934 11.7638 21.8655 11.5464 21.6801ZM48.6481 20.052C50.419 20.0487 51.9425 20.5915 53.2193 21.6801C53.4367 21.8655 53.4533 22.1934 53.2717 22.4126L52.3331 23.5455C52.1445 23.7731 51.8091 23.8002 51.5704 23.6233C50.5872 22.8945 49.5984 22.5311 48.6041 22.5331C47.4679 22.5351 46.4825 22.9067 45.6483 23.6478C44.8132 24.3889 44.3975 25.3439 44.3997 26.5126C44.4021 27.6814 44.818 28.6707 45.6475 29.4799C46.4771 30.2896 47.4961 30.6931 48.7055 30.6908C49.7735 30.6888 50.7875 30.2653 51.7466 29.4192C51.9641 29.2272 52.3033 29.2538 52.5016 29.465L53.3689 30.3883C53.5712 30.6038 53.565 30.9464 53.3439 31.1433C51.8639 32.4605 50.1772 33.1209 48.2842 33.1245C46.4825 33.1278 44.931 32.5309 43.63 31.3323C42.3291 30.1344 41.677 28.5655 41.6732 26.6253C41.6694 24.6851 42.3437 23.1053 43.6968 21.8864C45.0494 20.6671 46.7001 20.0557 48.6481 20.052ZM69.9209 32.6422C69.9209 32.9167 70.1382 33.1372 70.4087 33.1372H72.2636C72.5341 33.1372 72.7515 32.9167 72.7515 32.6422V20.6241C72.7515 20.3496 72.5341 20.129 72.2636 20.129H70.4087C70.1382 20.129 69.9209 20.3496 69.9209 20.6241V32.6373V32.6422Z" fill="#141C36"/>
</svg>
