<svg width="24" height="24" viewBox="0 0 24 24" fill="none" xmlns="http://www.w3.org/2000/svg">
<path d="M5.74968 3.75C4.64717 3.75 3.75 4.64719 3.75 5.74968C3.74906 6.85313 4.64626 7.7503 5.74968 7.7503C6.85219 7.7503 7.74936 6.8531 7.74936 5.75062C7.74936 4.64717 6.85217 3.75 5.74968 3.75Z" fill="#141C36"/>
<path d="M11.9989 3.75C10.8964 3.75 9.99927 4.64719 9.99927 5.74968C9.99927 6.85313 10.8965 7.7503 11.9989 7.7503C13.1014 7.7503 13.9986 6.8531 13.9986 5.75062C13.9986 4.64717 13.1014 3.75 11.9989 3.75Z" fill="#141C36"/>
<path d="M18.2485 7.75028C19.351 7.75028 20.2481 6.85308 20.2481 5.7506C20.2481 4.64811 19.3509 3.75092 18.2485 3.75092C17.1459 3.74998 16.2488 4.64717 16.2488 5.7506C16.2488 6.85311 17.146 7.75028 18.2485 7.75028Z" fill="#141C36"/>
<path d="M5.74968 10.0003C4.64717 10.0003 3.75 10.8975 3.75 12C3.75 13.1025 4.64719 13.9997 5.74968 13.9997C6.85217 13.9997 7.74936 13.1025 7.74936 12C7.74936 10.8975 6.85217 10.0003 5.74968 10.0003Z" fill="#141C36"/>
<path d="M11.9989 10.0003C10.8964 10.0003 9.99927 10.8975 9.99927 12C9.99927 13.1025 10.8965 13.9997 11.9989 13.9997C13.1014 13.9997 13.9986 13.1025 13.9986 12C13.9986 10.8975 13.1014 10.0003 11.9989 10.0003Z" fill="#141C36"/>
<path d="M18.2485 10.0003C17.1459 10.0003 16.2488 10.8975 16.2488 12C16.2488 13.1025 17.146 13.9997 18.2485 13.9997C19.3509 13.9997 20.2481 13.1025 20.2481 12C20.2491 10.8975 19.3519 10.0003 18.2485 10.0003Z" fill="#141C36"/>
<path d="M5.74968 16.2497C4.64717 16.2497 3.75 17.1469 3.75 18.2494C3.75 19.3519 4.64719 20.2491 5.74968 20.2491C6.85219 20.25 7.74936 19.3528 7.74936 18.2494C7.74936 17.1469 6.85217 16.2497 5.74968 16.2497Z" fill="#141C36"/>
<path d="M11.9989 16.2497C10.8964 16.2497 9.99927 17.1469 9.99927 18.2494C9.99927 19.3519 10.8965 20.2491 11.9989 20.2491C13.1014 20.2491 13.9986 19.3519 13.9986 18.2494C13.9986 17.1469 13.1014 16.2497 11.9989 16.2497Z" fill="#141C36"/>
<path d="M18.2485 16.2497C17.1459 16.2497 16.2488 17.1469 16.2488 18.2494C16.2488 19.3519 17.146 20.2491 18.2485 20.2491C19.3509 20.2491 20.2481 19.3519 20.2481 18.2494C20.2491 17.1469 19.3519 16.2497 18.2485 16.2497Z" fill="#141C36"/>
</svg>
