<svg viewBox="0 0 1104 180" fill="none" xmlns="http://www.w3.org/2000/svg">
<path d="M66.8934 137.039C66.8934 138.53 66.4051 139.673 65.4285 140.467C64.452 141.261 63.062 141.658 61.2586 141.658H59.7742V147H57.4402V132.723H61.5516C63.3354 132.723 64.6701 133.087 65.5555 133.816C66.4474 134.546 66.8934 135.62 66.8934 137.039ZM59.7742 139.695H61.0145C62.2124 139.695 63.0913 139.487 63.6512 139.07C64.2111 138.654 64.491 138.003 64.491 137.117C64.491 136.297 64.2404 135.685 63.7391 135.281C63.2378 134.878 62.4565 134.676 61.3953 134.676H59.7742V139.695ZM76.4086 147L75.9496 145.496H75.8715C75.3506 146.154 74.8266 146.603 74.2992 146.844C73.7719 147.078 73.0948 147.195 72.268 147.195C71.2068 147.195 70.3767 146.909 69.7777 146.336C69.1853 145.763 68.8891 144.952 68.8891 143.904C68.8891 142.791 69.3025 141.951 70.1293 141.385C70.9561 140.818 72.2159 140.509 73.9086 140.457L75.7738 140.398V139.822C75.7738 139.132 75.6111 138.618 75.2855 138.279C74.9665 137.934 74.4685 137.762 73.7914 137.762C73.238 137.762 72.7074 137.843 72.1996 138.006C71.6918 138.169 71.2035 138.361 70.7348 138.582L69.9926 136.941C70.5785 136.635 71.2198 136.404 71.9164 136.248C72.613 136.085 73.2706 136.004 73.8891 136.004C75.2628 136.004 76.2979 136.303 76.9945 136.902C77.6977 137.501 78.0492 138.442 78.0492 139.725V147H76.4086ZM72.9906 145.438C73.824 145.438 74.4913 145.206 74.9926 144.744C75.5004 144.275 75.7543 143.621 75.7543 142.781V141.844L74.3676 141.902C73.2868 141.941 72.4991 142.124 72.0043 142.449C71.516 142.768 71.2719 143.26 71.2719 143.924C71.2719 144.406 71.4151 144.78 71.7016 145.047C71.988 145.307 72.4177 145.438 72.9906 145.438ZM83.6973 147H81.4023V136.199H83.6973V147ZM81.2656 133.338C81.2656 132.928 81.3763 132.612 81.5977 132.391C81.8255 132.169 82.1478 132.059 82.5645 132.059C82.9681 132.059 83.2806 132.169 83.502 132.391C83.7298 132.612 83.8438 132.928 83.8438 133.338C83.8438 133.729 83.7298 134.038 83.502 134.266C83.2806 134.487 82.9681 134.598 82.5645 134.598C82.1478 134.598 81.8255 134.487 81.5977 134.266C81.3763 134.038 81.2656 133.729 81.2656 133.338ZM92.6168 136.004C93.079 136.004 93.4599 136.036 93.7594 136.102L93.5348 138.24C93.2092 138.162 92.8707 138.123 92.5191 138.123C91.6012 138.123 90.8557 138.423 90.2828 139.021C89.7164 139.62 89.4332 140.398 89.4332 141.355V147H87.1383V136.199H88.9352L89.2379 138.104H89.3551C89.7132 137.459 90.1786 136.948 90.7516 136.57C91.331 136.193 91.9527 136.004 92.6168 136.004ZM98.216 147H95.9211V136.199H98.216V147ZM95.7844 133.338C95.7844 132.928 95.8951 132.612 96.1164 132.391C96.3443 132.169 96.6665 132.059 97.0832 132.059C97.4869 132.059 97.7994 132.169 98.0207 132.391C98.2486 132.612 98.3625 132.928 98.3625 133.338C98.3625 133.729 98.2486 134.038 98.0207 134.266C97.7994 134.487 97.4869 134.598 97.0832 134.598C96.6665 134.598 96.3443 134.487 96.1164 134.266C95.8951 134.038 95.7844 133.729 95.7844 133.338ZM111.159 147H108.854V140.359C108.854 139.526 108.685 138.904 108.346 138.494C108.014 138.084 107.484 137.879 106.755 137.879C105.785 137.879 105.075 138.165 104.626 138.738C104.177 139.311 103.952 140.271 103.952 141.619V147H101.657V136.199H103.454L103.776 137.615H103.893C104.219 137.101 104.681 136.704 105.28 136.424C105.879 136.144 106.543 136.004 107.272 136.004C109.863 136.004 111.159 137.322 111.159 139.959V147ZM123.623 136.199V137.459L121.778 137.801C121.947 138.029 122.087 138.309 122.198 138.641C122.308 138.973 122.364 139.324 122.364 139.695C122.364 140.809 121.98 141.684 121.211 142.322C120.443 142.96 119.385 143.279 118.038 143.279C117.692 143.279 117.38 143.253 117.1 143.201C116.605 143.507 116.358 143.865 116.358 144.275C116.358 144.523 116.472 144.708 116.7 144.832C116.934 144.956 117.36 145.018 117.979 145.018H119.864C121.055 145.018 121.96 145.271 122.579 145.779C123.197 146.287 123.506 147.02 123.506 147.977C123.506 149.201 123.002 150.145 121.993 150.809C120.983 151.473 119.525 151.805 117.618 151.805C116.146 151.805 115.023 151.544 114.248 151.023C113.474 150.503 113.086 149.76 113.086 148.797C113.086 148.133 113.295 147.573 113.711 147.117C114.135 146.668 114.724 146.355 115.479 146.18C115.173 146.049 114.919 145.841 114.717 145.555C114.522 145.262 114.424 144.956 114.424 144.637C114.424 144.233 114.538 143.891 114.766 143.611C114.994 143.331 115.332 143.055 115.782 142.781C115.222 142.54 114.766 142.15 114.414 141.609C114.069 141.062 113.897 140.424 113.897 139.695C113.897 138.523 114.265 137.615 115 136.971C115.743 136.326 116.797 136.004 118.164 136.004C118.47 136.004 118.789 136.027 119.121 136.072C119.46 136.111 119.714 136.154 119.883 136.199H123.623ZM115.137 148.68C115.137 149.174 115.358 149.555 115.801 149.822C116.25 150.089 116.879 150.223 117.686 150.223C118.936 150.223 119.867 150.044 120.479 149.686C121.091 149.327 121.397 148.852 121.397 148.26C121.397 147.791 121.228 147.456 120.889 147.254C120.557 147.059 119.935 146.961 119.024 146.961H117.286C116.628 146.961 116.104 147.114 115.713 147.42C115.329 147.732 115.137 148.152 115.137 148.68ZM116.123 139.695C116.123 140.372 116.296 140.893 116.641 141.258C116.993 141.622 117.494 141.805 118.145 141.805C119.473 141.805 120.137 141.095 120.137 139.676C120.137 138.973 119.971 138.432 119.639 138.055C119.314 137.671 118.816 137.479 118.145 137.479C117.481 137.479 116.976 137.667 116.631 138.045C116.293 138.423 116.123 138.973 116.123 139.695ZM133.894 135.799C133.894 136.209 134.002 136.596 134.216 136.961C134.438 137.326 134.744 137.713 135.134 138.123C135.87 137.706 136.384 137.319 136.677 136.961C136.977 136.596 137.127 136.189 137.127 135.74C137.127 135.317 136.983 134.979 136.697 134.725C136.417 134.471 136.043 134.344 135.574 134.344C135.059 134.344 134.649 134.477 134.343 134.744C134.044 135.005 133.894 135.356 133.894 135.799ZM135.349 145.223C136.541 145.223 137.559 144.874 138.406 144.178L134.666 140.496C133.976 140.939 133.5 141.355 133.24 141.746C132.979 142.13 132.849 142.57 132.849 143.064C132.849 143.702 133.074 144.223 133.523 144.627C133.979 145.024 134.587 145.223 135.349 145.223ZM130.427 143.221C130.427 142.368 130.636 141.626 131.052 140.994C131.469 140.356 132.221 139.725 133.308 139.1C132.69 138.377 132.267 137.768 132.039 137.273C131.817 136.772 131.707 136.255 131.707 135.721C131.707 134.731 132.058 133.95 132.761 133.377C133.471 132.804 134.421 132.518 135.613 132.518C136.765 132.518 137.67 132.798 138.328 133.357C138.985 133.911 139.314 134.66 139.314 135.604C139.314 136.346 139.093 137.02 138.65 137.625C138.214 138.23 137.481 138.836 136.453 139.441L139.832 142.703C140.359 142.007 140.798 140.984 141.15 139.637H143.513C143.058 141.486 142.328 142.993 141.326 144.158L144.265 147H141.306L139.851 145.584C139.187 146.118 138.477 146.521 137.722 146.795C136.974 147.062 136.143 147.195 135.232 147.195C133.735 147.195 132.559 146.84 131.707 146.131C130.854 145.421 130.427 144.451 130.427 143.221ZM55.9883 174H53.127L46.1055 162.623H46.0273L46.0762 163.258C46.1673 164.469 46.2129 165.576 46.2129 166.578V174H44.0938V159.723H46.9258L53.9277 171.041H53.9863C53.9733 170.891 53.9473 170.348 53.9082 169.41C53.8691 168.466 53.8496 167.73 53.8496 167.203V159.723H55.9883V174ZM69.2438 168.58C69.2438 170.344 68.7913 171.721 67.8863 172.711C66.9814 173.701 65.7216 174.195 64.107 174.195C63.0979 174.195 62.206 173.967 61.4313 173.512C60.6565 173.056 60.0608 172.402 59.6441 171.549C59.2275 170.696 59.0191 169.706 59.0191 168.58C59.0191 166.829 59.4684 165.462 60.3668 164.479C61.2652 163.495 62.5315 163.004 64.1656 163.004C65.7281 163.004 66.9651 163.508 67.8766 164.518C68.788 165.52 69.2438 166.874 69.2438 168.58ZM61.3824 168.58C61.3824 171.074 62.3036 172.32 64.1461 172.32C65.969 172.32 66.8805 171.074 66.8805 168.58C66.8805 166.113 65.9625 164.879 64.1266 164.879C63.163 164.879 62.4632 165.198 62.027 165.836C61.5973 166.474 61.3824 167.389 61.3824 168.58ZM76.0637 172.34C76.6236 172.34 77.1835 172.252 77.7434 172.076V173.805C77.4895 173.915 77.1607 174.007 76.757 174.078C76.3599 174.156 75.9465 174.195 75.5168 174.195C73.3423 174.195 72.2551 173.049 72.2551 170.758V164.938H70.7805V163.922L72.3625 163.082L73.1438 160.797H74.5598V163.199H77.6359V164.938H74.5598V170.719C74.5598 171.272 74.6965 171.682 74.9699 171.949C75.2499 172.21 75.6145 172.34 76.0637 172.34ZM82.3562 174H80.0613V163.199H82.3562V174ZM79.9246 160.338C79.9246 159.928 80.0353 159.612 80.2566 159.391C80.4845 159.169 80.8068 159.059 81.2234 159.059C81.6271 159.059 81.9396 159.169 82.1609 159.391C82.3888 159.612 82.5027 159.928 82.5027 160.338C82.5027 160.729 82.3888 161.038 82.1609 161.266C81.9396 161.487 81.6271 161.598 81.2234 161.598C80.8068 161.598 80.4845 161.487 80.2566 161.266C80.0353 161.038 79.9246 160.729 79.9246 160.338ZM91.2172 164.938H88.5805V174H86.2758V164.938H84.4984V163.863L86.2758 163.16V162.457C86.2758 161.181 86.5753 160.237 87.1742 159.625C87.7732 159.007 88.6879 158.697 89.9184 158.697C90.7256 158.697 91.5199 158.831 92.3012 159.098L91.6957 160.836C91.1293 160.654 90.5889 160.562 90.0746 160.562C89.5538 160.562 89.1729 160.725 88.932 161.051C88.6977 161.37 88.5805 161.852 88.5805 162.496V163.199H91.2172V164.938ZM95.348 174H93.0531V163.199H95.348V174ZM92.9164 160.338C92.9164 159.928 93.0271 159.612 93.2484 159.391C93.4763 159.169 93.7986 159.059 94.2152 159.059C94.6189 159.059 94.9314 159.169 95.1527 159.391C95.3806 159.612 95.4945 159.928 95.4945 160.338C95.4945 160.729 95.3806 161.038 95.1527 161.266C94.9314 161.487 94.6189 161.598 94.2152 161.598C93.7986 161.598 93.4763 161.487 93.2484 161.266C93.0271 161.038 92.9164 160.729 92.9164 160.338ZM103.154 174.195C101.52 174.195 100.277 173.72 99.4238 172.77C98.5775 171.812 98.1543 170.442 98.1543 168.658C98.1543 166.842 98.597 165.445 99.4824 164.469C100.374 163.492 101.66 163.004 103.34 163.004C104.479 163.004 105.505 163.215 106.416 163.639L105.723 165.484C104.753 165.107 103.952 164.918 103.32 164.918C101.452 164.918 100.518 166.158 100.518 168.639C100.518 169.85 100.749 170.761 101.211 171.373C101.68 171.979 102.363 172.281 103.262 172.281C104.284 172.281 105.251 172.027 106.162 171.52V173.521C105.752 173.762 105.312 173.935 104.844 174.039C104.382 174.143 103.818 174.195 103.154 174.195ZM115.609 174L115.15 172.496H115.072C114.551 173.154 114.027 173.603 113.5 173.844C112.972 174.078 112.295 174.195 111.468 174.195C110.407 174.195 109.577 173.909 108.978 173.336C108.386 172.763 108.089 171.952 108.089 170.904C108.089 169.791 108.503 168.951 109.33 168.385C110.157 167.818 111.416 167.509 113.109 167.457L114.974 167.398V166.822C114.974 166.132 114.811 165.618 114.486 165.279C114.167 164.934 113.669 164.762 112.992 164.762C112.438 164.762 111.908 164.843 111.4 165.006C110.892 165.169 110.404 165.361 109.935 165.582L109.193 163.941C109.779 163.635 110.42 163.404 111.117 163.248C111.813 163.085 112.471 163.004 113.089 163.004C114.463 163.004 115.498 163.303 116.195 163.902C116.898 164.501 117.25 165.442 117.25 166.725V174H115.609ZM112.191 172.438C113.024 172.438 113.692 172.206 114.193 171.744C114.701 171.275 114.955 170.621 114.955 169.781V168.844L113.568 168.902C112.487 168.941 111.699 169.124 111.205 169.449C110.716 169.768 110.472 170.26 110.472 170.924C110.472 171.406 110.615 171.78 110.902 172.047C111.188 172.307 111.618 172.438 112.191 172.438ZM124.626 172.34C125.186 172.34 125.746 172.252 126.306 172.076V173.805C126.052 173.915 125.723 174.007 125.32 174.078C124.922 174.156 124.509 174.195 124.079 174.195C121.905 174.195 120.818 173.049 120.818 170.758V164.938H119.343V163.922L120.925 163.082L121.706 160.797H123.122V163.199H126.198V164.938H123.122V170.719C123.122 171.272 123.259 171.682 123.532 171.949C123.812 172.21 124.177 172.34 124.626 172.34ZM130.919 174H128.624V163.199H130.919V174ZM128.487 160.338C128.487 159.928 128.598 159.612 128.819 159.391C129.047 159.169 129.369 159.059 129.786 159.059C130.19 159.059 130.502 159.169 130.723 159.391C130.951 159.612 131.065 159.928 131.065 160.338C131.065 160.729 130.951 161.038 130.723 161.266C130.502 161.487 130.19 161.598 129.786 161.598C129.369 161.598 129.047 161.487 128.819 161.266C128.598 161.038 128.487 160.729 128.487 160.338ZM143.94 168.58C143.94 170.344 143.487 171.721 142.582 172.711C141.677 173.701 140.418 174.195 138.803 174.195C137.794 174.195 136.902 173.967 136.127 173.512C135.353 173.056 134.757 172.402 134.34 171.549C133.924 170.696 133.715 169.706 133.715 168.58C133.715 166.829 134.164 165.462 135.063 164.479C135.961 163.495 137.228 163.004 138.862 163.004C140.424 163.004 141.661 163.508 142.573 164.518C143.484 165.52 143.94 166.874 143.94 168.58ZM136.079 168.58C136.079 171.074 137 172.32 138.842 172.32C140.665 172.32 141.577 171.074 141.577 168.58C141.577 166.113 140.659 164.879 138.823 164.879C137.859 164.879 137.159 165.198 136.723 165.836C136.293 166.474 136.079 167.389 136.079 168.58ZM156.238 174H153.934V167.359C153.934 166.526 153.764 165.904 153.426 165.494C153.094 165.084 152.563 164.879 151.834 164.879C150.864 164.879 150.154 165.165 149.705 165.738C149.256 166.311 149.031 167.271 149.031 168.619V174H146.736V163.199H148.533L148.855 164.615H148.973C149.298 164.101 149.76 163.704 150.359 163.424C150.958 163.144 151.622 163.004 152.352 163.004C154.943 163.004 156.238 164.322 156.238 166.959V174Z" fill="#25274D"/>
<circle cx="100" cy="55" r="55" fill="#FFE4E4"/>
<path d="M115.785 79.0001V73.7418C115.785 70.9527 114.668 68.2778 112.678 66.3056C110.689 64.3333 107.99 63.2253 105.177 63.2253H83.9597C81.1461 63.2253 78.4478 64.3333 76.4583 66.3056C74.4688 68.2778 73.3511 70.9527 73.3511 73.7418V79.0001" fill="white"/>
<path d="M94.5696 52.709C100.429 52.709 105.178 48.0006 105.178 42.1925C105.178 36.3844 100.429 31.6761 94.5696 31.6761C88.7106 31.6761 83.961 36.3844 83.961 42.1925C83.961 48.0006 88.7106 52.709 94.5696 52.709Z" fill="white"/>
<path d="M114.434 78.3248V73.0666C114.434 70.2775 113.316 67.6025 111.327 65.6303C109.337 63.6581 106.639 62.5501 103.826 62.5501H82.6084C79.7948 62.5501 77.0965 63.6581 75.107 65.6303C73.1175 67.6025 71.9998 70.2775 71.9998 73.0666V78.3248" stroke="#333333" stroke-width="2" stroke-linecap="round" stroke-linejoin="round"/>
<path d="M93.2183 52.033C99.0773 52.033 103.827 47.3246 103.827 41.5165C103.827 35.7084 99.0773 31 93.2183 31C87.3593 31 82.6097 35.7084 82.6097 41.5165C82.6097 47.3246 87.3593 52.033 93.2183 52.033Z" stroke="#333333" stroke-width="2" stroke-linecap="round" stroke-linejoin="round"/>
<path d="M127.097 78.3246V73.0663C127.095 70.7362 126.313 68.4727 124.873 66.6311C123.433 64.7895 121.417 63.4742 119.141 62.8916" stroke="#333333" stroke-width="2" stroke-linecap="round" stroke-linejoin="round"/>
<path d="M108.53 31.3419C110.812 31.9211 112.834 33.2367 114.279 35.0813C115.723 36.9259 116.507 39.1946 116.507 41.5297C116.507 43.8648 115.723 46.1335 114.279 47.9781C112.834 49.8227 110.812 51.1384 108.53 51.7176" stroke="#333333" stroke-width="2" stroke-linecap="round" stroke-linejoin="round"/>
<line x1="171" y1="58" x2="254" y2="58" stroke="#9FA6C1" stroke-width="2" stroke-linecap="round" stroke-linejoin="round" stroke-dasharray="3 3"/>
<line x1="397" y1="58" x2="480" y2="58" stroke="#9FA6C1" stroke-width="2" stroke-linecap="round" stroke-linejoin="round" stroke-dasharray="3 3"/>
<line x1="623" y1="58" x2="706" y2="58" stroke="#9FA6C1" stroke-width="2" stroke-linecap="round" stroke-linejoin="round" stroke-dasharray="3 3"/>
<line x1="849" y1="58" x2="932" y2="58" stroke="#9FA6C1" stroke-width="2" stroke-linecap="round" stroke-linejoin="round" stroke-dasharray="3 3"/>
<path d="M513.887 132.723H518.125C520.092 132.723 521.511 133.009 522.383 133.582C523.262 134.155 523.702 135.06 523.702 136.297C523.702 137.13 523.487 137.824 523.057 138.377C522.627 138.93 522.009 139.279 521.202 139.422V139.52C522.204 139.708 522.94 140.083 523.409 140.643C523.884 141.196 524.121 141.948 524.121 142.898C524.121 144.181 523.672 145.187 522.774 145.916C521.882 146.639 520.638 147 519.043 147H513.887V132.723ZM516.221 138.621H518.467C519.444 138.621 520.157 138.468 520.606 138.162C521.055 137.85 521.28 137.322 521.28 136.58C521.28 135.91 521.036 135.424 520.547 135.125C520.065 134.826 519.297 134.676 518.243 134.676H516.221V138.621ZM516.221 140.516V145.037H518.702C519.678 145.037 520.414 144.852 520.909 144.48C521.41 144.103 521.661 143.51 521.661 142.703C521.661 141.961 521.407 141.411 520.899 141.053C520.391 140.695 519.62 140.516 518.584 140.516H516.221ZM534.613 147L534.291 145.584H534.174C533.855 146.085 533.399 146.479 532.807 146.766C532.221 147.052 531.55 147.195 530.795 147.195C529.486 147.195 528.51 146.87 527.865 146.219C527.221 145.568 526.898 144.581 526.898 143.26V136.199H529.213V142.859C529.213 143.686 529.382 144.308 529.721 144.725C530.059 145.135 530.59 145.34 531.312 145.34C532.276 145.34 532.982 145.053 533.432 144.48C533.887 143.901 534.115 142.934 534.115 141.58V136.199H536.42V147H534.613ZM542.136 147H539.841V136.199H542.136V147ZM539.705 133.338C539.705 132.928 539.815 132.612 540.037 132.391C540.265 132.169 540.587 132.059 541.004 132.059C541.407 132.059 541.72 132.169 541.941 132.391C542.169 132.612 542.283 132.928 542.283 133.338C542.283 133.729 542.169 134.038 541.941 134.266C541.72 134.487 541.407 134.598 541.004 134.598C540.587 134.598 540.265 134.487 540.037 134.266C539.815 134.038 539.705 133.729 539.705 133.338ZM547.872 147H545.577V131.805H547.872V147ZM554.956 147.195C553.608 147.195 552.557 146.707 551.802 145.73C551.046 144.754 550.669 143.383 550.669 141.619C550.669 139.848 551.05 138.471 551.811 137.488C552.58 136.499 553.641 136.004 554.995 136.004C556.414 136.004 557.495 136.528 558.237 137.576H558.354C558.244 136.801 558.188 136.189 558.188 135.74V131.805H560.493V147H558.696L558.296 145.584H558.188C557.453 146.658 556.375 147.195 554.956 147.195ZM555.571 145.34C556.515 145.34 557.202 145.076 557.632 144.549C558.061 144.015 558.283 143.152 558.296 141.961V141.639C558.296 140.278 558.074 139.311 557.632 138.738C557.189 138.165 556.496 137.879 555.552 137.879C554.744 137.879 554.123 138.208 553.686 138.865C553.25 139.516 553.032 140.447 553.032 141.658C553.032 142.856 553.244 143.771 553.667 144.402C554.09 145.027 554.725 145.34 555.571 145.34ZM566.219 147H563.924V136.199H566.219V147ZM563.787 133.338C563.787 132.928 563.898 132.612 564.12 132.391C564.347 132.169 564.67 132.059 565.086 132.059C565.49 132.059 565.802 132.169 566.024 132.391C566.252 132.612 566.366 132.928 566.366 133.338C566.366 133.729 566.252 134.038 566.024 134.266C565.802 134.487 565.49 134.598 565.086 134.598C564.67 134.598 564.347 134.487 564.12 134.266C563.898 134.038 563.787 133.729 563.787 133.338ZM579.162 147H576.857V140.359C576.857 139.526 576.688 138.904 576.35 138.494C576.018 138.084 575.487 137.879 574.758 137.879C573.788 137.879 573.078 138.165 572.629 138.738C572.18 139.311 571.955 140.271 571.955 141.619V147H569.66V136.199H571.457L571.779 137.615H571.896C572.222 137.101 572.684 136.704 573.283 136.424C573.882 136.144 574.546 136.004 575.275 136.004C577.867 136.004 579.162 137.322 579.162 139.959V147ZM591.627 136.199V137.459L589.781 137.801C589.95 138.029 590.09 138.309 590.201 138.641C590.311 138.973 590.367 139.324 590.367 139.695C590.367 140.809 589.983 141.684 589.214 142.322C588.446 142.96 587.388 143.279 586.041 143.279C585.696 143.279 585.383 143.253 585.103 143.201C584.608 143.507 584.361 143.865 584.361 144.275C584.361 144.523 584.475 144.708 584.703 144.832C584.937 144.956 585.364 145.018 585.982 145.018H587.867C589.058 145.018 589.963 145.271 590.582 145.779C591.2 146.287 591.509 147.02 591.509 147.977C591.509 149.201 591.005 150.145 589.996 150.809C588.987 151.473 587.528 151.805 585.621 151.805C584.149 151.805 583.026 151.544 582.252 151.023C581.477 150.503 581.089 149.76 581.089 148.797C581.089 148.133 581.298 147.573 581.714 147.117C582.138 146.668 582.727 146.355 583.482 146.18C583.176 146.049 582.922 145.841 582.72 145.555C582.525 145.262 582.427 144.956 582.427 144.637C582.427 144.233 582.541 143.891 582.769 143.611C582.997 143.331 583.336 143.055 583.785 142.781C583.225 142.54 582.769 142.15 582.418 141.609C582.073 141.062 581.9 140.424 581.9 139.695C581.9 138.523 582.268 137.615 583.004 136.971C583.746 136.326 584.8 136.004 586.168 136.004C586.474 136.004 586.793 136.027 587.125 136.072C587.463 136.111 587.717 136.154 587.886 136.199H591.627ZM583.14 148.68C583.14 149.174 583.362 149.555 583.804 149.822C584.254 150.089 584.882 150.223 585.689 150.223C586.939 150.223 587.87 150.044 588.482 149.686C589.094 149.327 589.4 148.852 589.4 148.26C589.4 147.791 589.231 147.456 588.892 147.254C588.56 147.059 587.938 146.961 587.027 146.961H585.289C584.631 146.961 584.107 147.114 583.716 147.42C583.332 147.732 583.14 148.152 583.14 148.68ZM584.127 139.695C584.127 140.372 584.299 140.893 584.644 141.258C584.996 141.622 585.497 141.805 586.148 141.805C587.476 141.805 588.14 141.095 588.14 139.676C588.14 138.973 587.974 138.432 587.642 138.055C587.317 137.671 586.819 137.479 586.148 137.479C585.484 137.479 584.979 137.667 584.634 138.045C584.296 138.423 584.127 138.973 584.127 139.695ZM516.745 166.363H518.366C519.454 166.363 520.241 166.161 520.73 165.758C521.218 165.354 521.462 164.755 521.462 163.961C521.462 163.154 521.198 162.574 520.671 162.223C520.144 161.871 519.349 161.695 518.288 161.695H516.745V166.363ZM516.745 168.297V174H514.411V159.723H518.445C520.287 159.723 521.651 160.068 522.536 160.758C523.422 161.448 523.864 162.49 523.864 163.883C523.864 165.66 522.94 166.926 521.091 167.682L525.124 174H522.468L519.05 168.297H516.745ZM533.868 174L533.409 172.496H533.331C532.81 173.154 532.286 173.603 531.759 173.844C531.231 174.078 530.554 174.195 529.727 174.195C528.666 174.195 527.836 173.909 527.237 173.336C526.645 172.763 526.348 171.952 526.348 170.904C526.348 169.791 526.762 168.951 527.589 168.385C528.415 167.818 529.675 167.509 531.368 167.457L533.233 167.398V166.822C533.233 166.132 533.07 165.618 532.745 165.279C532.426 164.934 531.928 164.762 531.251 164.762C530.697 164.762 530.167 164.843 529.659 165.006C529.151 165.169 528.663 165.361 528.194 165.582L527.452 163.941C528.038 163.635 528.679 163.404 529.376 163.248C530.072 163.085 530.73 163.004 531.348 163.004C532.722 163.004 533.757 163.303 534.454 163.902C535.157 164.501 535.509 165.442 535.509 166.725V174H533.868ZM530.45 172.438C531.283 172.438 531.951 172.206 532.452 171.744C532.96 171.275 533.214 170.621 533.214 169.781V168.844L531.827 168.902C530.746 168.941 529.958 169.124 529.464 169.449C528.975 169.768 528.731 170.26 528.731 170.924C528.731 171.406 528.874 171.78 529.161 172.047C529.447 172.307 529.877 172.438 530.45 172.438ZM544.34 174.195C542.973 174.195 541.912 173.704 541.157 172.721H541.02C541.111 173.632 541.157 174.186 541.157 174.381V178.805H538.862V163.199H540.717C540.769 163.401 540.877 163.883 541.039 164.645H541.157C541.873 163.551 542.947 163.004 544.379 163.004C545.727 163.004 546.775 163.492 547.524 164.469C548.279 165.445 548.657 166.816 548.657 168.58C548.657 170.344 548.273 171.721 547.504 172.711C546.743 173.701 545.688 174.195 544.34 174.195ZM543.784 164.879C542.872 164.879 542.205 165.146 541.782 165.68C541.365 166.214 541.157 167.066 541.157 168.238V168.58C541.157 169.895 541.365 170.849 541.782 171.441C542.198 172.027 542.879 172.32 543.823 172.32C544.617 172.32 545.229 171.995 545.659 171.344C546.088 170.693 546.303 169.765 546.303 168.561C546.303 167.35 546.088 166.435 545.659 165.816C545.235 165.191 544.61 164.879 543.784 164.879ZM556.951 174.195C555.584 174.195 554.523 173.704 553.768 172.721H553.631C553.722 173.632 553.768 174.186 553.768 174.381V178.805H551.473V163.199H553.328C553.38 163.401 553.488 163.883 553.65 164.645H553.768C554.484 163.551 555.558 163.004 556.99 163.004C558.338 163.004 559.386 163.492 560.135 164.469C560.89 165.445 561.268 166.816 561.268 168.58C561.268 170.344 560.883 171.721 560.115 172.711C559.354 173.701 558.299 174.195 556.951 174.195ZM556.395 164.879C555.483 164.879 554.816 165.146 554.393 165.68C553.976 166.214 553.768 167.066 553.768 168.238V168.58C553.768 169.895 553.976 170.849 554.393 171.441C554.809 172.027 555.49 172.32 556.434 172.32C557.228 172.32 557.84 171.995 558.27 171.344C558.699 170.693 558.914 169.765 558.914 168.561C558.914 167.35 558.699 166.435 558.27 165.816C557.846 165.191 557.221 164.879 556.395 164.879ZM573.664 168.58C573.664 170.344 573.211 171.721 572.306 172.711C571.401 173.701 570.142 174.195 568.527 174.195C567.518 174.195 566.626 173.967 565.851 173.512C565.076 173.056 564.481 172.402 564.064 171.549C563.647 170.696 563.439 169.706 563.439 168.58C563.439 166.829 563.888 165.462 564.787 164.479C565.685 163.495 566.951 163.004 568.586 163.004C570.148 163.004 571.385 163.508 572.296 164.518C573.208 165.52 573.664 166.874 573.664 168.58ZM565.802 168.58C565.802 171.074 566.724 172.32 568.566 172.32C570.389 172.32 571.3 171.074 571.3 168.58C571.3 166.113 570.382 164.879 568.546 164.879C567.583 164.879 566.883 165.198 566.447 165.836C566.017 166.474 565.802 167.389 565.802 168.58ZM581.939 163.004C582.401 163.004 582.782 163.036 583.081 163.102L582.857 165.24C582.531 165.162 582.193 165.123 581.841 165.123C580.923 165.123 580.178 165.423 579.605 166.021C579.038 166.62 578.755 167.398 578.755 168.355V174H576.46V163.199H578.257L578.56 165.104H578.677C579.035 164.459 579.501 163.948 580.073 163.57C580.653 163.193 581.275 163.004 581.939 163.004ZM589.266 172.34C589.826 172.34 590.386 172.252 590.946 172.076V173.805C590.692 173.915 590.363 174.007 589.96 174.078C589.563 174.156 589.149 174.195 588.72 174.195C586.545 174.195 585.458 173.049 585.458 170.758V164.938H583.983V163.922L585.565 163.082L586.346 160.797H587.762V163.199H590.839V164.938H587.762V170.719C587.762 171.272 587.899 171.682 588.173 171.949C588.453 172.21 588.817 172.34 589.266 172.34Z" fill="#25274D"/>
<circle cx="552" cy="55" r="55" fill="#DCF1D8"/>
<path d="M548.007 84.7066V81.2407C548.007 79.4023 547.316 77.6392 546.086 76.3392C544.857 75.0392 543.189 74.3089 541.449 74.3089H528.333C526.594 74.3089 524.926 75.0392 523.696 76.3392C522.466 77.6392 521.775 79.4023 521.775 81.2407V84.7066" fill="white"/>
<path d="M534.891 67.3773C538.513 67.3773 541.449 64.2738 541.449 60.4455C541.449 56.6172 538.513 53.5137 534.891 53.5137C531.269 53.5137 528.333 56.6172 528.333 60.4455C528.333 64.2738 531.269 67.3773 534.891 67.3773Z" fill="white"/>
<path d="M582.692 56.9587V53.4928C582.692 51.6544 582.001 49.8913 580.771 48.5913C579.541 47.2913 577.873 46.561 576.134 46.561H563.018C561.279 46.561 559.611 47.2913 558.381 48.5913C557.151 49.8913 556.46 51.6544 556.46 53.4928V56.9587" fill="white"/>
<path d="M569.576 39.6294C573.198 39.6294 576.134 36.5259 576.134 32.6976C576.134 28.8693 573.198 25.7658 569.576 25.7658C565.954 25.7658 563.018 28.8693 563.018 32.6976C563.018 36.5259 565.954 39.6294 569.576 39.6294Z" fill="white"/>
<path d="M548.998 84.6864V81.2205C548.998 79.3821 548.307 77.619 547.077 76.319C545.847 75.019 544.179 74.2887 542.44 74.2887H529.324C527.585 74.2887 525.917 75.019 524.687 76.319C523.457 77.619 522.766 79.3821 522.766 81.2205V84.6864" stroke="#333333" stroke-width="2" stroke-linecap="round" stroke-linejoin="round"/>
<path d="M535.882 67.3567C539.503 67.3567 542.44 64.2532 542.44 60.4249C542.44 56.5965 539.503 53.4931 535.882 53.4931C532.26 53.4931 529.324 56.5965 529.324 60.4249C529.324 64.2532 532.26 67.3567 535.882 67.3567Z" stroke="#333333" stroke-width="2" stroke-linecap="round" stroke-linejoin="round"/>
<path d="M582.227 56.959V53.4931C582.227 51.6547 581.536 49.8915 580.306 48.5916C579.076 47.2916 577.408 46.5613 575.668 46.5613H562.552C560.813 46.5613 559.145 47.2916 557.915 48.5916C556.685 49.8915 555.994 51.6547 555.994 53.4931V56.959" stroke="#333333" stroke-width="2" stroke-linecap="round" stroke-linejoin="round"/>
<path d="M569.11 39.6292C572.732 39.6292 575.668 36.5258 575.668 32.6974C575.668 28.8691 572.732 25.7657 569.11 25.7657C565.488 25.7657 562.552 28.8691 562.552 32.6974C562.552 36.5258 565.488 39.6292 569.11 39.6292Z" stroke="#333333" stroke-width="2" stroke-linecap="round" stroke-linejoin="round"/>
<path d="M539.088 25.7657L543.752 30.6949L539.088 35.6242" stroke="#333333" stroke-width="2" stroke-linecap="round" stroke-linejoin="round"/>
<path d="M522.766 38.089V35.6244C522.766 34.317 523.257 33.0633 524.132 32.1388C525.006 31.2144 526.192 30.6951 527.429 30.6951H543.752" stroke="#333333" stroke-width="2" stroke-linecap="round" stroke-linejoin="round"/>
<path d="M565.902 85.2251L561.239 80.2958L565.902 75.3665" stroke="#333333" stroke-width="2" stroke-linecap="round" stroke-linejoin="round"/>
<path d="M582.225 72.9021V75.3668C582.225 76.6741 581.734 77.9279 580.859 78.8523C579.985 79.7767 578.798 80.296 577.562 80.296H561.239" stroke="#333333" stroke-width="2" stroke-linecap="round" stroke-linejoin="round"/>
<path d="M715.362 147V132.723H717.696V147H715.362ZM730.883 147H728.578V140.359C728.578 139.526 728.409 138.904 728.07 138.494C727.738 138.084 727.208 137.879 726.479 137.879C725.508 137.879 724.799 138.165 724.35 138.738C723.9 139.311 723.676 140.271 723.676 141.619V147H721.381V136.199H723.178L723.5 137.615H723.617C723.943 137.101 724.405 136.704 725.004 136.424C725.603 136.144 726.267 136.004 726.996 136.004C729.587 136.004 730.883 137.322 730.883 139.959V147ZM738.25 145.34C738.81 145.34 739.369 145.252 739.929 145.076V146.805C739.675 146.915 739.347 147.007 738.943 147.078C738.546 147.156 738.132 147.195 737.703 147.195C735.528 147.195 734.441 146.049 734.441 143.758V137.938H732.966V136.922L734.548 136.082L735.33 133.797H736.746V136.199H739.822V137.938H736.746V143.719C736.746 144.272 736.882 144.682 737.156 144.949C737.436 145.21 737.8 145.34 738.25 145.34ZM747.726 136.004C748.188 136.004 748.569 136.036 748.868 136.102L748.644 138.24C748.318 138.162 747.98 138.123 747.628 138.123C746.71 138.123 745.965 138.423 745.392 139.021C744.825 139.62 744.542 140.398 744.542 141.355V147H742.247V136.199H744.044L744.347 138.104H744.464C744.822 137.459 745.288 136.948 745.861 136.57C746.44 136.193 747.062 136.004 747.726 136.004ZM760.61 141.58C760.61 143.344 760.158 144.721 759.253 145.711C758.348 146.701 757.088 147.195 755.473 147.195C754.464 147.195 753.572 146.967 752.798 146.512C752.023 146.056 751.427 145.402 751.011 144.549C750.594 143.696 750.386 142.706 750.386 141.58C750.386 139.829 750.835 138.462 751.733 137.479C752.632 136.495 753.898 136.004 755.532 136.004C757.095 136.004 758.332 136.508 759.243 137.518C760.154 138.52 760.61 139.874 760.61 141.58ZM752.749 141.58C752.749 144.074 753.67 145.32 755.512 145.32C757.335 145.32 758.247 144.074 758.247 141.58C758.247 139.113 757.329 137.879 755.493 137.879C754.529 137.879 753.83 138.198 753.393 138.836C752.964 139.474 752.749 140.389 752.749 141.58ZM767.049 147.195C765.702 147.195 764.65 146.707 763.895 145.73C763.14 144.754 762.762 143.383 762.762 141.619C762.762 139.848 763.143 138.471 763.905 137.488C764.673 136.499 765.734 136.004 767.088 136.004C768.508 136.004 769.588 136.528 770.33 137.576H770.448C770.337 136.801 770.282 136.189 770.282 135.74V131.805H772.586V147H770.789L770.389 145.584H770.282C769.546 146.658 768.468 147.195 767.049 147.195ZM767.664 145.34C768.608 145.34 769.295 145.076 769.725 144.549C770.155 144.015 770.376 143.152 770.389 141.961V141.639C770.389 140.278 770.168 139.311 769.725 138.738C769.282 138.165 768.589 137.879 767.645 137.879C766.838 137.879 766.216 138.208 765.78 138.865C765.343 139.516 765.125 140.447 765.125 141.658C765.125 142.856 765.337 143.771 765.76 144.402C766.183 145.027 766.818 145.34 767.664 145.34ZM783.635 147L783.312 145.584H783.195C782.876 146.085 782.421 146.479 781.828 146.766C781.242 147.052 780.572 147.195 779.816 147.195C778.508 147.195 777.531 146.87 776.887 146.219C776.242 145.568 775.92 144.581 775.92 143.26V136.199H778.234V142.859C778.234 143.686 778.404 144.308 778.742 144.725C779.081 145.135 779.611 145.34 780.334 145.34C781.298 145.34 782.004 145.053 782.453 144.48C782.909 143.901 783.137 142.934 783.137 141.58V136.199H785.441V147H783.635ZM793.218 147.195C791.584 147.195 790.341 146.72 789.488 145.77C788.642 144.812 788.218 143.442 788.218 141.658C788.218 139.842 788.661 138.445 789.546 137.469C790.438 136.492 791.724 136.004 793.404 136.004C794.543 136.004 795.569 136.215 796.48 136.639L795.787 138.484C794.817 138.107 794.016 137.918 793.384 137.918C791.516 137.918 790.582 139.158 790.582 141.639C790.582 142.85 790.813 143.761 791.275 144.373C791.744 144.979 792.427 145.281 793.326 145.281C794.348 145.281 795.315 145.027 796.226 144.52V146.521C795.816 146.762 795.377 146.935 794.908 147.039C794.446 147.143 793.882 147.195 793.218 147.195ZM802.939 145.34C803.499 145.34 804.058 145.252 804.618 145.076V146.805C804.364 146.915 804.036 147.007 803.632 147.078C803.235 147.156 802.821 147.195 802.392 147.195C800.217 147.195 799.13 146.049 799.13 143.758V137.938H797.655V136.922L799.237 136.082L800.019 133.797H801.435V136.199H804.511V137.938H801.435V143.719C801.435 144.272 801.571 144.682 801.845 144.949C802.125 145.21 802.489 145.34 802.939 145.34ZM816.516 141.58C816.516 143.344 816.064 144.721 815.159 145.711C814.254 146.701 812.994 147.195 811.38 147.195C810.371 147.195 809.479 146.967 808.704 146.512C807.929 146.056 807.333 145.402 806.917 144.549C806.5 143.696 806.292 142.706 806.292 141.58C806.292 139.829 806.741 138.462 807.639 137.479C808.538 136.495 809.804 136.004 811.438 136.004C813.001 136.004 814.238 136.508 815.149 137.518C816.061 138.52 816.516 139.874 816.516 141.58ZM808.655 141.58C808.655 144.074 809.576 145.32 811.419 145.32C813.242 145.32 814.153 144.074 814.153 141.58C814.153 139.113 813.235 137.879 811.399 137.879C810.436 137.879 809.736 138.198 809.3 138.836C808.87 139.474 808.655 140.389 808.655 141.58ZM824.791 136.004C825.254 136.004 825.635 136.036 825.934 136.102L825.709 138.24C825.384 138.162 825.045 138.123 824.694 138.123C823.776 138.123 823.03 138.423 822.457 139.021C821.891 139.62 821.608 140.398 821.608 141.355V147H819.313V136.199H821.11L821.413 138.104H821.53C821.888 137.459 822.353 136.948 822.926 136.57C823.506 136.193 824.127 136.004 824.791 136.004ZM826.455 136.199H828.955L831.152 142.322C831.484 143.195 831.706 144.015 831.816 144.783H831.895C831.953 144.425 832.061 143.992 832.217 143.484C832.373 142.97 833.2 140.542 834.697 136.199H837.178L832.559 148.436C831.719 150.682 830.319 151.805 828.359 151.805C827.852 151.805 827.357 151.749 826.875 151.639V149.822C827.22 149.9 827.614 149.939 828.057 149.939C829.163 149.939 829.941 149.298 830.391 148.016L830.791 147L826.455 136.199ZM751.407 170.123C751.407 171.393 750.948 172.389 750.03 173.111C749.112 173.834 747.846 174.195 746.232 174.195C744.617 174.195 743.295 173.945 742.267 173.443V171.236C742.918 171.542 743.608 171.783 744.337 171.959C745.073 172.135 745.756 172.223 746.388 172.223C747.312 172.223 747.993 172.047 748.429 171.695C748.872 171.344 749.093 170.872 749.093 170.279C749.093 169.745 748.891 169.293 748.487 168.922C748.084 168.551 747.251 168.111 745.987 167.604C744.685 167.076 743.767 166.474 743.234 165.797C742.7 165.12 742.433 164.306 742.433 163.355C742.433 162.164 742.856 161.227 743.702 160.543C744.549 159.859 745.685 159.518 747.111 159.518C748.478 159.518 749.838 159.817 751.193 160.416L750.45 162.32C749.181 161.786 748.048 161.52 747.052 161.52C746.297 161.52 745.724 161.686 745.333 162.018C744.943 162.343 744.747 162.776 744.747 163.316C744.747 163.688 744.825 164.007 744.982 164.273C745.138 164.534 745.395 164.781 745.753 165.016C746.111 165.25 746.756 165.559 747.687 165.943C748.735 166.38 749.503 166.786 749.991 167.164C750.48 167.542 750.838 167.968 751.066 168.443C751.293 168.919 751.407 169.479 751.407 170.123ZM758.794 174.195C757.114 174.195 755.799 173.707 754.848 172.73C753.904 171.747 753.432 170.396 753.432 168.678C753.432 166.913 753.872 165.527 754.751 164.518C755.63 163.508 756.837 163.004 758.374 163.004C759.8 163.004 760.926 163.437 761.753 164.303C762.58 165.169 762.993 166.36 762.993 167.877V169.117H755.796C755.828 170.165 756.111 170.973 756.645 171.539C757.179 172.099 757.931 172.379 758.901 172.379C759.539 172.379 760.132 172.32 760.679 172.203C761.232 172.079 761.824 171.878 762.456 171.598V173.463C761.896 173.73 761.33 173.919 760.757 174.029C760.184 174.14 759.529 174.195 758.794 174.195ZM758.374 164.742C757.645 164.742 757.059 164.973 756.616 165.436C756.18 165.898 755.919 166.572 755.835 167.457H760.737C760.724 166.565 760.509 165.891 760.093 165.436C759.676 164.973 759.103 164.742 758.374 164.742ZM773.006 170.924C773.006 171.979 772.622 172.789 771.854 173.355C771.086 173.915 769.985 174.195 768.553 174.195C767.114 174.195 765.959 173.977 765.086 173.541V171.559C766.356 172.145 767.537 172.438 768.631 172.438C770.044 172.438 770.75 172.011 770.75 171.158C770.75 170.885 770.672 170.657 770.516 170.475C770.36 170.292 770.103 170.104 769.745 169.908C769.386 169.713 768.888 169.492 768.25 169.244C767.007 168.762 766.164 168.281 765.721 167.799C765.285 167.317 765.067 166.692 765.067 165.924C765.067 164.999 765.438 164.283 766.18 163.775C766.929 163.261 767.944 163.004 769.227 163.004C770.496 163.004 771.698 163.261 772.83 163.775L772.088 165.504C770.923 165.022 769.943 164.781 769.149 164.781C767.938 164.781 767.332 165.126 767.332 165.816C767.332 166.155 767.489 166.441 767.801 166.676C768.12 166.91 768.81 167.232 769.871 167.643C770.763 167.988 771.411 168.303 771.815 168.59C772.218 168.876 772.518 169.208 772.713 169.586C772.909 169.957 773.006 170.403 773.006 170.924ZM782.902 170.924C782.902 171.979 782.518 172.789 781.75 173.355C780.982 173.915 779.882 174.195 778.449 174.195C777.01 174.195 775.855 173.977 774.982 173.541V171.559C776.252 172.145 777.434 172.438 778.527 172.438C779.94 172.438 780.646 172.011 780.646 171.158C780.646 170.885 780.568 170.657 780.412 170.475C780.256 170.292 779.999 170.104 779.641 169.908C779.283 169.713 778.785 169.492 778.146 169.244C776.903 168.762 776.06 168.281 775.617 167.799C775.181 167.317 774.963 166.692 774.963 165.924C774.963 164.999 775.334 164.283 776.076 163.775C776.825 163.261 777.84 163.004 779.123 163.004C780.393 163.004 781.594 163.261 782.727 163.775L781.984 165.504C780.819 165.022 779.839 164.781 779.045 164.781C777.834 164.781 777.229 165.126 777.229 165.816C777.229 166.155 777.385 166.441 777.697 166.676C778.016 166.91 778.706 167.232 779.768 167.643C780.66 167.988 781.307 168.303 781.711 168.59C782.115 168.876 782.414 169.208 782.609 169.586C782.805 169.957 782.902 170.403 782.902 170.924ZM787.837 174H785.543V163.199H787.837V174ZM785.406 160.338C785.406 159.928 785.517 159.612 785.738 159.391C785.966 159.169 786.288 159.059 786.705 159.059C787.108 159.059 787.421 159.169 787.642 159.391C787.87 159.612 787.984 159.928 787.984 160.338C787.984 160.729 787.87 161.038 787.642 161.266C787.421 161.487 787.108 161.598 786.705 161.598C786.288 161.598 785.966 161.487 785.738 161.266C785.517 161.038 785.406 160.729 785.406 160.338ZM800.859 168.58C800.859 170.344 800.406 171.721 799.501 172.711C798.596 173.701 797.336 174.195 795.722 174.195C794.713 174.195 793.821 173.967 793.046 173.512C792.271 173.056 791.676 172.402 791.259 171.549C790.842 170.696 790.634 169.706 790.634 168.58C790.634 166.829 791.083 165.462 791.982 164.479C792.88 163.495 794.146 163.004 795.78 163.004C797.343 163.004 798.58 163.508 799.491 164.518C800.403 165.52 800.859 166.874 800.859 168.58ZM792.997 168.58C792.997 171.074 793.918 172.32 795.761 172.32C797.584 172.32 798.495 171.074 798.495 168.58C798.495 166.113 797.577 164.879 795.741 164.879C794.778 164.879 794.078 165.198 793.642 165.836C793.212 166.474 792.997 167.389 792.997 168.58ZM813.157 174H810.852V167.359C810.852 166.526 810.683 165.904 810.345 165.494C810.012 165.084 809.482 164.879 808.753 164.879C807.783 164.879 807.073 165.165 806.624 165.738C806.175 166.311 805.95 167.271 805.95 168.619V174H803.655V163.199H805.452L805.774 164.615H805.891C806.217 164.101 806.679 163.704 807.278 163.424C807.877 163.144 808.541 163.004 809.27 163.004C811.861 163.004 813.157 164.322 813.157 166.959V174Z" fill="#25274D"/>
<circle cx="778" cy="55" r="55" fill="#E7FAFF"/>
<path d="M773.476 68.6947C773.476 69.7826 773.903 70.8259 774.664 71.5951C775.425 72.3643 776.458 72.7965 777.534 72.7965H801.883L810 81V48.186C810 47.0981 809.572 46.0548 808.811 45.2856C808.05 44.5163 807.018 44.0842 805.942 44.0842H777.534C776.458 44.0842 775.425 44.5163 774.664 45.2856C773.903 46.0548 773.476 47.0981 773.476 48.186V68.6947Z" fill="white"/>
<path d="M770.534 66.8506C770.534 67.9384 770.962 68.9817 771.723 69.751C772.484 70.5202 773.516 70.9523 774.593 70.9523H798.942L807.059 79.1559V46.3418C807.059 45.254 806.631 44.2107 805.87 43.4414C805.109 42.6722 804.077 42.2401 803 42.2401H774.593C773.516 42.2401 772.484 42.6722 771.723 43.4414C770.962 44.2107 770.534 45.254 770.534 46.3418V66.8506Z" stroke="#333333" stroke-width="2" stroke-linecap="round" stroke-linejoin="round"/>
<path d="M785.553 55.5835C785.553 56.6713 785.126 57.7146 784.365 58.4838C783.604 59.2531 782.571 59.6852 781.495 59.6852H757.146L749.029 67.8887V35.0747C749.029 33.9868 749.457 32.9435 750.218 32.1743C750.979 31.4051 752.011 30.9729 753.087 30.9729H781.495C782.571 30.9729 783.604 31.4051 784.365 32.1743C785.126 32.9435 785.553 33.9868 785.553 35.0747V55.5835Z" fill="white"/>
<path d="M783.524 53.6105C783.524 54.6984 783.097 55.7417 782.336 56.5109C781.575 57.2801 780.542 57.7123 779.466 57.7123H755.117L747 65.9158V33.1018C747 32.0139 747.428 30.9706 748.189 30.2014C748.95 29.4321 749.982 29 751.058 29H779.466C780.542 29 781.575 29.4321 782.336 30.2014C783.097 30.9706 783.524 32.0139 783.524 33.1018V53.6105Z" stroke="#333333" stroke-width="2" stroke-linecap="round" stroke-linejoin="round"/>
<path d="M765.003 44.9517C765.851 44.9517 766.539 44.2568 766.539 43.3996C766.539 42.5424 765.851 41.8475 765.003 41.8475C764.155 41.8475 763.467 42.5424 763.467 43.3996C763.467 44.2568 764.155 44.9517 765.003 44.9517Z" stroke="#333333" stroke-width="2" stroke-linecap="round" stroke-linejoin="round"/>
<path d="M775.753 44.9518C776.601 44.9518 777.288 44.2569 777.288 43.3997C777.288 42.5425 776.601 41.8475 775.753 41.8475C774.905 41.8475 774.217 42.5425 774.217 43.3997C774.217 44.2569 774.905 44.9518 775.753 44.9518Z" stroke="#333333" stroke-width="2" stroke-linecap="round" stroke-linejoin="round"/>
<path d="M754.254 44.9522C755.102 44.9522 755.789 44.2573 755.789 43.4001C755.789 42.5429 755.102 41.848 754.254 41.848C753.405 41.848 752.718 42.5429 752.718 43.4001C752.718 44.2573 753.405 44.9522 754.254 44.9522Z" stroke="#333333" stroke-width="2" stroke-linecap="round" stroke-linejoin="round"/>
<path d="M302.943 134.52C301.601 134.52 300.547 134.995 299.779 135.945C299.01 136.896 298.626 138.208 298.626 139.881C298.626 141.632 298.994 142.957 299.73 143.855C300.472 144.754 301.543 145.203 302.943 145.203C303.548 145.203 304.134 145.145 304.7 145.027C305.267 144.904 305.856 144.747 306.468 144.559V146.561C305.348 146.984 304.079 147.195 302.659 147.195C300.57 147.195 298.965 146.564 297.845 145.301C296.725 144.031 296.165 142.218 296.165 139.861C296.165 138.377 296.435 137.078 296.976 135.965C297.523 134.852 298.31 133.999 299.339 133.406C300.368 132.814 301.575 132.518 302.962 132.518C304.42 132.518 305.768 132.824 307.005 133.436L306.165 135.379C305.683 135.151 305.172 134.952 304.632 134.783C304.098 134.607 303.535 134.52 302.943 134.52ZM311.745 147H309.45V131.805H311.745V147ZM317.481 147H315.186V136.199H317.481V147ZM315.049 133.338C315.049 132.928 315.16 132.612 315.381 132.391C315.609 132.169 315.931 132.059 316.348 132.059C316.752 132.059 317.064 132.169 317.286 132.391C317.513 132.612 317.627 132.928 317.627 133.338C317.627 133.729 317.513 134.038 317.286 134.266C317.064 134.487 316.752 134.598 316.348 134.598C315.931 134.598 315.609 134.487 315.381 134.266C315.16 134.038 315.049 133.729 315.049 133.338ZM325.639 147.195C323.959 147.195 322.644 146.707 321.693 145.73C320.749 144.747 320.277 143.396 320.277 141.678C320.277 139.913 320.717 138.527 321.596 137.518C322.475 136.508 323.682 136.004 325.219 136.004C326.645 136.004 327.771 136.437 328.598 137.303C329.424 138.169 329.838 139.36 329.838 140.877V142.117H322.641C322.673 143.165 322.956 143.973 323.49 144.539C324.024 145.099 324.776 145.379 325.746 145.379C326.384 145.379 326.977 145.32 327.523 145.203C328.077 145.079 328.669 144.878 329.301 144.598V146.463C328.741 146.73 328.174 146.919 327.602 147.029C327.029 147.14 326.374 147.195 325.639 147.195ZM325.219 137.742C324.49 137.742 323.904 137.973 323.461 138.436C323.025 138.898 322.764 139.572 322.68 140.457H327.582C327.569 139.565 327.354 138.891 326.938 138.436C326.521 137.973 325.948 137.742 325.219 137.742ZM342.097 147H339.793V140.359C339.793 139.526 339.623 138.904 339.285 138.494C338.953 138.084 338.422 137.879 337.693 137.879C336.723 137.879 336.013 138.165 335.564 138.738C335.115 139.311 334.89 140.271 334.89 141.619V147H332.595V136.199H334.392L334.714 137.615H334.832C335.157 137.101 335.619 136.704 336.218 136.424C336.817 136.144 337.481 136.004 338.211 136.004C340.802 136.004 342.097 137.322 342.097 139.959V147ZM349.464 145.34C350.024 145.34 350.584 145.252 351.144 145.076V146.805C350.89 146.915 350.561 147.007 350.157 147.078C349.76 147.156 349.347 147.195 348.917 147.195C346.743 147.195 345.655 146.049 345.655 143.758V137.938H344.181V136.922L345.763 136.082L346.544 133.797H347.96V136.199H351.036V137.938H347.96V143.719C347.96 144.272 348.097 144.682 348.37 144.949C348.65 145.21 349.015 145.34 349.464 145.34ZM269.117 174V159.723H271.451V174H269.117ZM284.638 174H282.334V167.359C282.334 166.526 282.164 165.904 281.826 165.494C281.494 165.084 280.963 164.879 280.234 164.879C279.264 164.879 278.554 165.165 278.105 165.738C277.656 166.311 277.431 167.271 277.431 168.619V174H275.136V163.199H276.933L277.255 164.615H277.373C277.698 164.101 278.16 163.704 278.759 163.424C279.358 163.144 280.022 163.004 280.752 163.004C283.343 163.004 284.638 164.322 284.638 166.959V174ZM293.402 164.938H290.765V174H288.46V164.938H286.683V163.863L288.46 163.16V162.457C288.46 161.181 288.76 160.237 289.359 159.625C289.958 159.007 290.872 158.697 292.103 158.697C292.91 158.697 293.704 158.831 294.486 159.098L293.88 160.836C293.314 160.654 292.773 160.562 292.259 160.562C291.738 160.562 291.357 160.725 291.116 161.051C290.882 161.37 290.765 161.852 290.765 162.496V163.199H293.402V164.938ZM304.977 168.58C304.977 170.344 304.525 171.721 303.62 172.711C302.715 173.701 301.455 174.195 299.841 174.195C298.832 174.195 297.94 173.967 297.165 173.512C296.39 173.056 295.794 172.402 295.378 171.549C294.961 170.696 294.753 169.706 294.753 168.58C294.753 166.829 295.202 165.462 296.1 164.479C296.999 163.495 298.265 163.004 299.899 163.004C301.462 163.004 302.699 163.508 303.61 164.518C304.522 165.52 304.977 166.874 304.977 168.58ZM297.116 168.58C297.116 171.074 298.037 172.32 299.88 172.32C301.703 172.32 302.614 171.074 302.614 168.58C302.614 166.113 301.696 164.879 299.86 164.879C298.897 164.879 298.197 165.198 297.761 165.836C297.331 166.474 297.116 167.389 297.116 168.58ZM313.252 163.004C313.715 163.004 314.095 163.036 314.395 163.102L314.17 165.24C313.845 165.162 313.506 165.123 313.155 165.123C312.237 165.123 311.491 165.423 310.918 166.021C310.352 166.62 310.069 167.398 310.069 168.355V174H307.774V163.199H309.571L309.873 165.104H309.991C310.349 164.459 310.814 163.948 311.387 163.57C311.967 163.193 312.588 163.004 313.252 163.004ZM325.658 174H323.354V167.34C323.354 166.513 323.197 165.898 322.885 165.494C322.572 165.084 322.084 164.879 321.42 164.879C320.535 164.879 319.883 165.169 319.467 165.748C319.057 166.321 318.852 167.278 318.852 168.619V174H316.557V163.199H318.354L318.676 164.615H318.793C319.092 164.101 319.525 163.704 320.092 163.424C320.665 163.144 321.293 163.004 321.977 163.004C323.637 163.004 324.737 163.57 325.277 164.703H325.434C325.753 164.169 326.202 163.753 326.781 163.453C327.361 163.154 328.025 163.004 328.773 163.004C330.062 163.004 331 163.329 331.586 163.98C332.178 164.632 332.475 165.624 332.475 166.959V174H330.18V167.34C330.18 166.513 330.02 165.898 329.701 165.494C329.389 165.084 328.9 164.879 328.236 164.879C327.344 164.879 326.69 165.159 326.273 165.719C325.863 166.272 325.658 167.125 325.658 168.277V174ZM342.586 174L342.127 172.496H342.048C341.528 173.154 341.004 173.603 340.476 173.844C339.949 174.078 339.272 174.195 338.445 174.195C337.384 174.195 336.554 173.909 335.955 173.336C335.362 172.763 335.066 171.952 335.066 170.904C335.066 169.791 335.479 168.951 336.306 168.385C337.133 167.818 338.393 167.509 340.086 167.457L341.951 167.398V166.822C341.951 166.132 341.788 165.618 341.463 165.279C341.143 164.934 340.645 164.762 339.968 164.762C339.415 164.762 338.884 164.843 338.377 165.006C337.869 165.169 337.38 165.361 336.912 165.582L336.17 163.941C336.755 163.635 337.397 163.404 338.093 163.248C338.79 163.085 339.448 163.004 340.066 163.004C341.44 163.004 342.475 163.303 343.171 163.902C343.875 164.501 344.226 165.442 344.226 166.725V174H342.586ZM339.168 172.438C340.001 172.438 340.668 172.206 341.17 171.744C341.677 171.275 341.931 170.621 341.931 169.781V168.844L340.545 168.902C339.464 168.941 338.676 169.124 338.181 169.449C337.693 169.768 337.449 170.26 337.449 170.924C337.449 171.406 337.592 171.78 337.879 172.047C338.165 172.307 338.595 172.438 339.168 172.438ZM351.603 172.34C352.163 172.34 352.723 172.252 353.282 172.076V173.805C353.029 173.915 352.7 174.007 352.296 174.078C351.899 174.156 351.486 174.195 351.056 174.195C348.881 174.195 347.794 173.049 347.794 170.758V164.938H346.32V163.922L347.902 163.082L348.683 160.797H350.099V163.199H353.175V164.938H350.099V170.719C350.099 171.272 350.236 171.682 350.509 171.949C350.789 172.21 351.154 172.34 351.603 172.34ZM357.895 174H355.6V163.199H357.895V174ZM355.464 160.338C355.464 159.928 355.574 159.612 355.796 159.391C356.024 159.169 356.346 159.059 356.762 159.059C357.166 159.059 357.479 159.169 357.7 159.391C357.928 159.612 358.042 159.928 358.042 160.338C358.042 160.729 357.928 161.038 357.7 161.266C357.479 161.487 357.166 161.598 356.762 161.598C356.346 161.598 356.024 161.487 355.796 161.266C355.574 161.038 355.464 160.729 355.464 160.338ZM370.916 168.58C370.916 170.344 370.464 171.721 369.559 172.711C368.654 173.701 367.394 174.195 365.78 174.195C364.771 174.195 363.879 173.967 363.104 173.512C362.329 173.056 361.733 172.402 361.317 171.549C360.9 170.696 360.692 169.706 360.692 168.58C360.692 166.829 361.141 165.462 362.039 164.479C362.938 163.495 364.204 163.004 365.838 163.004C367.401 163.004 368.638 163.508 369.549 164.518C370.461 165.52 370.916 166.874 370.916 168.58ZM363.055 168.58C363.055 171.074 363.976 172.32 365.819 172.32C367.642 172.32 368.553 171.074 368.553 168.58C368.553 166.113 367.635 164.879 365.799 164.879C364.836 164.879 364.136 165.198 363.7 165.836C363.27 166.474 363.055 167.389 363.055 168.58ZM383.215 174H380.91V167.359C380.91 166.526 380.741 165.904 380.402 165.494C380.07 165.084 379.54 164.879 378.811 164.879C377.84 164.879 377.131 165.165 376.682 165.738C376.232 166.311 376.008 167.271 376.008 168.619V174H373.713V163.199H375.51L375.832 164.615H375.949C376.275 164.101 376.737 163.704 377.336 163.424C377.935 163.144 378.599 163.004 379.328 163.004C381.919 163.004 383.215 164.322 383.215 166.959V174Z" fill="#25274D"/>
<circle cx="326" cy="55" r="55" fill="#FFF3CD"/>
<path d="M304.6 71.6792H301.296C299.544 71.6792 297.863 70.9863 296.624 69.7531C295.385 68.5198 294.688 66.8472 294.688 65.1031V32.2227C294.688 30.4786 295.385 28.806 296.624 27.5727C297.863 26.3395 299.544 25.6466 301.296 25.6466H354.156C355.908 25.6466 357.589 26.3395 358.828 27.5727C360.067 28.806 360.764 30.4786 360.764 32.2227V65.1031C360.764 66.8472 360.067 68.5198 358.828 69.7531C357.589 70.9863 355.908 71.6792 354.156 71.6792H350.852" fill="white"/>
<path d="M301.627 73.652H298.323C296.57 73.652 294.89 72.9592 293.651 71.7259C292.411 70.4927 291.715 68.82 291.715 67.0759V34.1955C291.715 32.4515 292.411 30.7788 293.651 29.5456C294.89 28.3123 296.57 27.6195 298.323 27.6195H351.183C352.935 27.6195 354.616 28.3123 355.855 29.5456C357.094 30.7788 357.79 32.4515 357.79 34.1955V67.0759C357.79 68.82 357.094 70.4927 355.855 71.7259C354.616 72.9592 352.935 73.652 351.183 73.652H347.879" stroke="#333333" stroke-width="2" stroke-linecap="round" stroke-linejoin="round"/>
<path d="M325.743 69.0488L342.262 88.777H309.224L325.743 69.0488Z" fill="white"/>
<path d="M324.752 64.1165L341.271 83.8447H308.233L324.752 64.1165Z" stroke="#333333" stroke-width="2" stroke-linecap="round" stroke-linejoin="round"/>
<path d="M345.189 56.849V54.849C345.189 53.7881 344.768 52.7707 344.017 52.0206C343.267 51.2704 342.25 50.849 341.189 50.849H334.189C333.128 50.849 332.111 51.2704 331.361 52.0206C330.61 52.7707 330.189 53.7881 330.189 54.849V56.849" stroke="#333333" stroke-width="2" stroke-linecap="round" stroke-linejoin="round"/>
<path d="M337.689 46.849C339.898 46.849 341.689 45.0581 341.689 42.849C341.689 40.6399 339.898 38.849 337.689 38.849C335.48 38.849 333.689 40.6399 333.689 42.849C333.689 45.0581 335.48 46.849 337.689 46.849Z" stroke="#333333" stroke-width="2" stroke-linecap="round" stroke-linejoin="round"/>
<path d="M346.189 46.849L348.189 48.849L352.189 44.849" stroke="#333333" stroke-width="2" stroke-linecap="round" stroke-linejoin="round"/>
<path d="M317 46.7049H303" stroke="#333333" stroke-width="2" stroke-linecap="round" stroke-linejoin="round"/>
<path d="M321 42.7049H303" stroke="#333333" stroke-width="2" stroke-linecap="round" stroke-linejoin="round"/>
<path d="M321 50.7049H303" stroke="#333333" stroke-width="2" stroke-linecap="round" stroke-linejoin="round"/>
<path d="M317 54.7049H303" stroke="#333333" stroke-width="2" stroke-linecap="round" stroke-linejoin="round"/>
<path d="M962.182 147H959.868V132.723H967.925V134.695H962.182V139.158H967.563V141.141H962.182V147ZM972.713 147H970.418V136.199H972.713V147ZM970.282 133.338C970.282 132.928 970.392 132.612 970.614 132.391C970.842 132.169 971.164 132.059 971.58 132.059C971.984 132.059 972.297 132.169 972.518 132.391C972.746 132.612 972.86 132.928 972.86 133.338C972.86 133.729 972.746 134.038 972.518 134.266C972.297 134.487 971.984 134.598 971.58 134.598C971.164 134.598 970.842 134.487 970.614 134.266C970.392 134.038 970.282 133.729 970.282 133.338ZM985.656 147H983.352V140.359C983.352 139.526 983.182 138.904 982.844 138.494C982.512 138.084 981.981 137.879 981.252 137.879C980.282 137.879 979.572 138.165 979.123 138.738C978.674 139.311 978.449 140.271 978.449 141.619V147H976.154V136.199H977.951L978.273 137.615H978.391C978.716 137.101 979.178 136.704 979.777 136.424C980.376 136.144 981.04 136.004 981.77 136.004C984.361 136.004 985.656 137.322 985.656 139.959V147ZM995.757 147L995.298 145.496H995.22C994.699 146.154 994.175 146.603 993.648 146.844C993.121 147.078 992.444 147.195 991.617 147.195C990.556 147.195 989.726 146.909 989.127 146.336C988.534 145.763 988.238 144.952 988.238 143.904C988.238 142.791 988.651 141.951 989.478 141.385C990.305 140.818 991.565 140.509 993.257 140.457L995.123 140.398V139.822C995.123 139.132 994.96 138.618 994.634 138.279C994.315 137.934 993.817 137.762 993.14 137.762C992.587 137.762 992.056 137.843 991.548 138.006C991.041 138.169 990.552 138.361 990.084 138.582L989.341 136.941C989.927 136.635 990.569 136.404 991.265 136.248C991.962 136.085 992.619 136.004 993.238 136.004C994.612 136.004 995.647 136.303 996.343 136.902C997.046 137.501 997.398 138.442 997.398 139.725V147H995.757ZM992.339 145.438C993.173 145.438 993.84 145.206 994.341 144.744C994.849 144.275 995.103 143.621 995.103 142.781V141.844L993.716 141.902C992.636 141.941 991.848 142.124 991.353 142.449C990.865 142.768 990.621 143.26 990.621 143.924C990.621 144.406 990.764 144.78 991.05 145.047C991.337 145.307 991.767 145.438 992.339 145.438ZM1003.05 147H1000.75V131.805H1003.05V147ZM1008.78 147H1006.49V136.199H1008.78V147ZM1006.35 133.338C1006.35 132.928 1006.46 132.612 1006.68 132.391C1006.91 132.169 1007.23 132.059 1007.65 132.059C1008.05 132.059 1008.37 132.169 1008.59 132.391C1008.81 132.612 1008.93 132.928 1008.93 133.338C1008.93 133.729 1008.81 134.038 1008.59 134.266C1008.37 134.487 1008.05 134.598 1007.65 134.598C1007.23 134.598 1006.91 134.487 1006.68 134.266C1006.46 134.038 1006.35 133.729 1006.35 133.338ZM1019.44 147H1011.25V145.584L1016.71 137.957H1011.58V136.199H1019.28V137.801L1013.94 145.242H1019.44V147ZM1024.24 147H1021.94V136.199H1024.24V147ZM1021.81 133.338C1021.81 132.928 1021.92 132.612 1022.14 132.391C1022.37 132.169 1022.69 132.059 1023.11 132.059C1023.51 132.059 1023.82 132.169 1024.04 132.391C1024.27 132.612 1024.38 132.928 1024.38 133.338C1024.38 133.729 1024.27 134.038 1024.04 134.266C1023.82 134.487 1023.51 134.598 1023.11 134.598C1022.69 134.598 1022.37 134.487 1022.14 134.266C1021.92 134.038 1021.81 133.729 1021.81 133.338ZM1037.18 147H1034.88V140.359C1034.88 139.526 1034.71 138.904 1034.37 138.494C1034.04 138.084 1033.51 137.879 1032.78 137.879C1031.81 137.879 1031.1 138.165 1030.65 138.738C1030.2 139.311 1029.97 140.271 1029.97 141.619V147H1027.68V136.199H1029.48L1029.8 137.615H1029.92C1030.24 137.101 1030.7 136.704 1031.3 136.424C1031.9 136.144 1032.57 136.004 1033.29 136.004C1035.89 136.004 1037.18 137.322 1037.18 139.959V147ZM1049.65 136.199V137.459L1047.8 137.801C1047.97 138.029 1048.11 138.309 1048.22 138.641C1048.33 138.973 1048.39 139.324 1048.39 139.695C1048.39 140.809 1048 141.684 1047.23 142.322C1046.47 142.96 1045.41 143.279 1044.06 143.279C1043.71 143.279 1043.4 143.253 1043.12 143.201C1042.63 143.507 1042.38 143.865 1042.38 144.275C1042.38 144.523 1042.49 144.708 1042.72 144.832C1042.96 144.956 1043.38 145.018 1044 145.018H1045.89C1047.08 145.018 1047.98 145.271 1048.6 145.779C1049.22 146.287 1049.53 147.02 1049.53 147.977C1049.53 149.201 1049.02 150.145 1048.01 150.809C1047.01 151.473 1045.55 151.805 1043.64 151.805C1042.17 151.805 1041.05 151.544 1040.27 151.023C1039.5 150.503 1039.11 149.76 1039.11 148.797C1039.11 148.133 1039.32 147.573 1039.73 147.117C1040.16 146.668 1040.75 146.355 1041.5 146.18C1041.2 146.049 1040.94 145.841 1040.74 145.555C1040.54 145.262 1040.45 144.956 1040.45 144.637C1040.45 144.233 1040.56 143.891 1040.79 143.611C1041.02 143.331 1041.35 143.055 1041.8 142.781C1041.24 142.54 1040.79 142.15 1040.44 141.609C1040.09 141.062 1039.92 140.424 1039.92 139.695C1039.92 138.523 1040.29 137.615 1041.02 136.971C1041.76 136.326 1042.82 136.004 1044.19 136.004C1044.49 136.004 1044.81 136.027 1045.14 136.072C1045.48 136.111 1045.74 136.154 1045.91 136.199H1049.65ZM1041.16 148.68C1041.16 149.174 1041.38 149.555 1041.82 149.822C1042.27 150.089 1042.9 150.223 1043.71 150.223C1044.96 150.223 1045.89 150.044 1046.5 149.686C1047.11 149.327 1047.42 148.852 1047.42 148.26C1047.42 147.791 1047.25 147.456 1046.91 147.254C1046.58 147.059 1045.96 146.961 1045.05 146.961H1043.31C1042.65 146.961 1042.13 147.114 1041.74 147.42C1041.35 147.732 1041.16 148.152 1041.16 148.68ZM1042.15 139.695C1042.15 140.372 1042.32 140.893 1042.66 141.258C1043.01 141.622 1043.52 141.805 1044.17 141.805C1045.5 141.805 1046.16 141.095 1046.16 139.676C1046.16 138.973 1045.99 138.432 1045.66 138.055C1045.34 137.671 1044.84 137.479 1044.17 137.479C1043.5 137.479 1043 137.667 1042.65 138.045C1042.31 138.423 1042.15 138.973 1042.15 139.695Z" fill="#25274D"/>
<circle cx="1004" cy="55" r="55" fill="#FFE4E4"/>
<path d="M1006 82C1019.81 82 1031 70.8071 1031 57C1031 43.1929 1019.81 32 1006 32C992.193 32 981 43.1929 981 57C981 70.8071 992.193 82 1006 82Z" fill="white"/>
<path d="M1004 80C1017.81 80 1029 68.8071 1029 55C1029 41.1929 1017.81 30 1004 30C990.193 30 979 41.1929 979 55C979 68.8071 990.193 80 1004 80Z" stroke="#333333" stroke-width="2" stroke-linecap="round" stroke-linejoin="round"/>
<path d="M1029 55H1019" stroke="#333333" stroke-width="2" stroke-linecap="round" stroke-linejoin="round"/>
<path d="M989 55H979" stroke="#333333" stroke-width="2" stroke-linecap="round" stroke-linejoin="round"/>
<path d="M1004 40V30" stroke="#333333" stroke-width="2" stroke-linecap="round" stroke-linejoin="round"/>
<path d="M1004 80V70" stroke="#333333" stroke-width="2" stroke-linecap="round" stroke-linejoin="round"/>
</svg>
