<svg width="24" height="24" viewBox="0 0 24 24" fill="none" xmlns="http://www.w3.org/2000/svg">
<path fill-rule="evenodd" clip-rule="evenodd" d="M15.0553 4.3081C14.6732 3.90935 14.0402 3.89588 13.6414 4.27801C13.2427 4.66014 13.2292 5.29316 13.6114 5.69191L19.615 11.9565L13.6114 18.2211C13.2292 18.6199 13.2427 19.2529 13.6414 19.635C14.0402 20.0172 14.6732 20.0037 15.0553 19.6049L21.722 12.6484C22.0927 12.2616 22.0927 11.6514 21.722 11.2646L15.0553 4.3081ZM5.72199 4.30812C5.33986 3.90937 4.70684 3.89591 4.3081 4.27803C3.90935 4.66016 3.89588 5.29318 4.27801 5.69193L10.2816 11.9565L4.27801 18.2212C3.89588 18.6199 3.90935 19.2529 4.3081 19.6351C4.70684 20.0172 5.33986 20.0037 5.72199 19.605L12.3887 12.6484C12.7593 12.2616 12.7593 11.6514 12.3887 11.2646L5.72199 4.30812Z" fill="#141C36"/>
</svg>
