<svg width="24" height="24" viewBox="0 0 24 24" fill="none" xmlns="http://www.w3.org/2000/svg">
<path fill-rule="evenodd" clip-rule="evenodd" d="M10.3887 5.73539C10.7708 5.33665 10.7573 4.70363 10.3586 4.3215C9.95983 3.93937 9.32681 3.95284 8.94468 4.35158L2.27801 11.3081C1.90733 11.6949 1.90733 12.3051 2.27801 12.6919L8.94468 19.6484C9.32681 20.0472 9.95983 20.0606 10.3586 19.6785C10.7573 19.2964 10.7708 18.6634 10.3887 18.2646L4.38506 12L10.3887 5.73539ZM19.7219 5.73539C20.104 5.33665 20.0906 4.70363 19.6918 4.3215C19.2931 3.93937 18.6601 3.95284 18.2779 4.35158L11.6113 11.3081C11.2406 11.6949 11.2406 12.3051 11.6113 12.6919L18.2779 19.6484C18.6601 20.0472 19.2931 20.0606 19.6918 19.6785C20.0906 19.2964 20.104 18.6634 19.7219 18.2646L13.7183 12L19.7219 5.73539Z" fill="#272727"/>
</svg>
