<svg width="25" height="24" viewBox="0 0 25 24" fill="none" xmlns="http://www.w3.org/2000/svg">
<g id="optionalIcon">
<path id="Union" fill-rule="evenodd" clip-rule="evenodd" d="M17.2349 2.5C17.2349 1.94772 16.7871 1.5 16.2349 1.5C15.6826 1.5 15.2349 1.94772 15.2349 2.5V3.39075H9.70557V2.5C9.70557 1.94772 9.25785 1.5 8.70557 1.5C8.15328 1.5 7.70557 1.94772 7.70557 2.5V3.39075H5.88218C4.28613 3.39075 3 4.68924 3 6.28147V10.0629V19.5165C3 21.1087 4.28613 22.4072 5.88218 22.4072H19.0574C20.6535 22.4072 21.9396 21.1087 21.9396 19.5165V10.0629V6.28147C21.9396 4.68924 20.6535 3.39075 19.0574 3.39075H17.2349V2.5ZM19.9396 9.06293V6.28147C19.9396 5.78526 19.5404 5.39075 19.0574 5.39075H17.2349V6.28144C17.2349 6.83373 16.7871 7.28144 16.2349 7.28144C15.6826 7.28144 15.2349 6.83373 15.2349 6.28144V5.39075H9.70557V6.28144C9.70557 6.83373 9.25785 7.28144 8.70557 7.28144C8.15328 7.28144 7.70557 6.83373 7.70557 6.28144V5.39075H5.88218C5.39923 5.39075 5 5.78526 5 6.28147V9.06293H19.9396ZM5 11.0629H19.9396V19.5165C19.9396 20.0127 19.5404 20.4072 19.0574 20.4072H5.88218C5.39923 20.4072 5 20.0127 5 19.5165V11.0629Z" fill="#141C36"/>
</g>
</svg>
