<svg width="21" height="20" viewBox="0 0 21 20" fill="none" xmlns="http://www.w3.org/2000/svg">
<path d="M18.3984 9.58336C18.4013 10.6832 18.1443 11.7683 17.6484 12.75C17.0605 13.9265 16.1566 14.916 15.038 15.6078C13.9194 16.2995 12.6303 16.6662 11.3151 16.6667C10.2152 16.6696 9.1302 16.4126 8.14844 15.9167L3.39844 17.5L4.98177 12.75C4.48588 11.7683 4.2289 10.6832 4.23177 9.58336C4.23228 8.26815 4.59895 6.97907 5.2907 5.86048C5.98246 4.7419 6.97198 3.838 8.14844 3.25002C9.1302 2.75413 10.2152 2.49716 11.3151 2.50002H11.7318C13.4687 2.59585 15.1093 3.32899 16.3394 4.55907C17.5695 5.78915 18.3026 7.42973 18.3984 9.16669V9.58336Z" stroke="#0073C4" stroke-width="2" stroke-linecap="round" stroke-linejoin="round"/>
</svg>
