<svg width="32" height="32" viewBox="0 0 32 32" fill="none" xmlns="http://www.w3.org/2000/svg">
<path fill-rule="evenodd" clip-rule="evenodd" d="M16 32C24.8366 32 32 24.8366 32 16C32 7.16344 24.8366 0 16 0C7.16344 0 0 7.16344 0 16C0 24.8366 7.16344 32 16 32ZM26.4243 11.1651C26.945 10.6444 26.945 9.80014 26.4243 9.27944C25.9036 8.75874 25.0594 8.75874 24.5387 9.27944L12.4445 21.3737L7.46136 16.3906C6.94066 15.8699 6.09644 15.8699 5.57575 16.3906C5.05505 16.9113 5.05505 17.7555 5.57575 18.2762L11.5017 24.2021C11.7517 24.4521 12.0909 24.5926 12.4445 24.5926C12.7981 24.5926 13.1372 24.4521 13.3873 24.2021L26.4243 11.1651Z" fill="#1B8057"/>
</svg>
