<svg width="25" height="24" viewBox="0 0 25 24" fill="none" xmlns="http://www.w3.org/2000/svg">
<path fill-rule="evenodd" clip-rule="evenodd" d="M2.13317 5.57572C2.32217 5.25665 2.70316 5 3.21549 5H20.9384C21.4508 5 21.8318 5.25665 22.0208 5.57572L12.077 11.9719L2.13317 5.57572ZM0.000189426 6.01551C-3.82477e-05 6.02721 -6.04644e-05 6.0389 0.000121565 6.05058V18.25C0.000121565 19.9999 1.52605 21.2857 3.21549 21.2857H20.9384C22.6279 21.2857 24.1538 19.9999 24.1538 18.25V6.05058C24.154 6.0389 24.154 6.02721 24.1537 6.01551C24.1421 4.27596 22.6214 3 20.9384 3H3.21549C1.53256 3 0.0118809 4.27596 0.000189426 6.01551ZM22.1538 7.86817V18.25C22.1538 18.7394 21.6859 19.2857 20.9384 19.2857H3.21549C2.46802 19.2857 2.00012 18.7394 2.00012 18.25V7.86817L11.536 14.002C11.8655 14.2139 12.2884 14.2139 12.6179 14.002L22.1538 7.86817Z" fill="#141C36"/>
</svg>
