<svg width="24" height="24" viewBox="0 0 24 24" fill="none" xmlns="http://www.w3.org/2000/svg">
<g id="error">
<path id="Subtract" fill-rule="evenodd" clip-rule="evenodd" d="M24 12C24 18.6274 18.6274 24 12 24C5.37258 24 0 18.6274 0 12C0 5.37258 5.37258 0 12 0C18.6274 0 24 5.37258 24 12ZM17.7048 6.29274C18.0952 6.68335 18.0952 7.31665 17.7048 7.70726L13.4139 12L17.707 16.2949C18.0974 16.6855 18.0974 17.3188 17.707 17.7094C17.3165 18.1 16.6835 18.1 16.2931 17.7094L12 13.4145L7.70695 17.7094C7.31651 18.1 6.68348 18.1 6.29304 17.7094C5.9026 17.3188 5.9026 16.6855 6.29304 16.2949L10.5861 12L6.2952 7.70726C5.90476 7.31665 5.90476 6.68335 6.2952 6.29274C6.68564 5.90213 7.31867 5.90213 7.70911 6.29274L12 10.5855L16.2909 6.29274C16.6813 5.90213 17.3144 5.90213 17.7048 6.29274Z" fill="#B83C3C"/>
</g>
</svg>
