<svg width="24" height="24" viewBox="0 0 24 24" fill="none" xmlns="http://www.w3.org/2000/svg">
<g id="incomplete">
<circle id="Ellipse 109" cx="12" cy="12" r="12" fill="#C58930"/>
<path id="!" d="M12.8594 14.6641H11.1602L10.6523 4.72266H13.3574L12.8594 14.6641ZM10.5352 17.7793C10.5352 17.2975 10.6621 16.9329 10.916 16.6855C11.1699 16.4316 11.5312 16.3047 12 16.3047C12.4622 16.3047 12.8171 16.4349 13.0645 16.6953C13.3118 16.9557 13.4355 17.3171 13.4355 17.7793C13.4355 18.2415 13.3086 18.6094 13.0547 18.8828C12.8073 19.1497 12.4557 19.2832 12 19.2832C11.5378 19.2832 11.1764 19.153 10.916 18.8926C10.6621 18.6322 10.5352 18.2611 10.5352 17.7793Z" fill="white"/>
</g>
</svg>
