<svg width="72" height="72" viewBox="0 0 72 72" fill="none" xmlns="http://www.w3.org/2000/svg">
<path fill-rule="evenodd" clip-rule="evenodd" d="M62.5189 24.001C60.6683 15.9377 55.2512 9.15384 47.7956 5.56752C40.34 1.98156 31.6604 1.98156 24.2041 5.56752C16.7485 9.15348 11.3312 15.937 9.48079 24.001C7.40518 24.4931 5.95675 26.3691 5.99895 28.501V34.5C5.99895 36.9862 8.01552 39 10.4989 39C12.9852 39 14.9989 36.9862 14.9989 34.5V28.501C14.9933 28.0622 14.923 27.6263 14.7908 27.21H14.9989C15.9974 20.4122 20.2274 14.5171 26.3476 11.3952C32.4676 8.27335 39.7209 8.30986 45.8099 11.4936C51.8989 14.6774 56.0699 20.6117 57.0009 27.4208V27.6008C56.9699 27.8989 56.9699 28.1998 57.0009 28.5008V34.4998C57.0009 36.986 59.0146 38.9998 61.5009 38.9998C63.9843 38.9998 66.0009 36.986 66.0009 34.4998V28.5008C66.0543 26.3632 64.6003 24.4845 62.519 24.0008L62.5189 24.001ZM51.7188 36.4105C46.361 35.4121 40.8259 36.2474 35.9998 38.7787C31.1735 36.2475 25.6382 35.4121 20.2807 36.4105C18.9083 36.748 17.9576 37.9968 17.9998 39.4087V63.4106C17.9998 64.2712 18.371 65.0896 19.0207 65.6606C19.662 66.2203 20.5141 66.4846 21.3607 66.3806C25.8663 66.0009 30.3859 66.8953 34.4107 68.9597L34.8607 69.1396C34.9395 69.1565 35.021 69.1565 35.0998 69.1396C35.606 69.3 36.1516 69.3 36.6607 69.1396C36.7395 69.1565 36.8211 69.1565 36.8998 69.1396L37.3498 68.9597C41.4476 66.8615 46.0575 65.9756 50.6389 66.4087C51.4854 66.5128 52.3376 66.2512 52.9789 65.6887C53.6342 65.1149 54.0082 64.2825 53.9998 63.4105V39.4086C54.042 37.9968 53.0914 36.748 51.7188 36.4105L51.7188 36.4105ZM23.9988 42.0496C27.1207 41.9427 30.22 42.6346 32.9988 44.0605V61.8187C30.0766 60.9525 27.0504 60.4771 23.9988 60.4096V42.0496ZM48.0007 60.4096C44.9463 60.5165 41.9173 61.0311 39.0007 61.9396V44.0605C41.7795 42.6318 44.8761 41.9399 48.0007 42.0496V60.4096ZM44.0947 24.7933C44.658 24.478 45.0039 23.8881 44.9998 23.2501V23.2499C45.0039 22.6126 44.658 22.0227 44.0953 21.7074L32.7147 15.2415C32.1562 14.9195 31.4644 14.9195 30.9051 15.2415C30.3424 15.5568 29.9966 16.1467 29.9999 16.784V29.7153C29.9959 30.3526 30.3418 30.9432 30.9051 31.2585C31.4643 31.5805 32.1561 31.5805 32.7147 31.2585L44.0947 24.7933Z" fill="#0073C4"/>
</svg>
