<svg width="25" height="24" viewBox="0 0 25 24" fill="none" xmlns="http://www.w3.org/2000/svg">
<path d="M15.2 8.66303H5.03744L11.1123 13.013L16.4374 9.26303C16.85 8.96303 17.45 9.07553 17.75 9.48803C18.05 9.90053 17.9375 10.5005 17.525 10.8005L11.6375 14.9257C11.4875 15.0382 11.3 15.1132 11.1125 15.1132C10.925 15.1132 10.7375 15.0382 10.55 14.9257L3.12488 9.60054V18.938C3.12488 19.313 3.42488 19.6505 3.83739 19.6505H18.7248C19.0998 19.6505 19.4373 19.3505 19.4373 18.938V11.888C19.4373 11.363 19.8499 10.9505 20.3748 10.9505C20.8998 10.9505 21.3123 11.363 21.3123 11.888V18.938C21.3123 20.363 20.1498 21.5254 18.7249 21.5254H3.83744C2.41244 21.5254 1.25 20.3629 1.25 18.938V9.37542C1.25 7.95042 2.41251 6.78798 3.83744 6.78798H15.2374C15.7624 6.78798 16.1749 7.20049 16.1749 7.72547C16.1749 8.25044 15.7249 8.66295 15.1999 8.66295L15.2 8.66303ZM22.1374 5.47559L21.2374 6.41307V3.41307C21.2374 2.88807 20.8249 2.47559 20.3 2.47559C19.775 2.47559 19.3625 2.8881 19.3625 3.41307V6.37563L18.575 5.51312C18.2375 5.13812 17.6375 5.10061 17.2625 5.43812C16.8874 5.77563 16.85 6.37561 17.1875 6.75063L19.5875 9.41319L19.6625 9.48819C19.7 9.48819 19.7 9.52569 19.7375 9.52569C19.775 9.56319 19.8125 9.56319 19.85 9.60069C19.8875 9.60069 19.8875 9.63819 19.925 9.63819C19.9625 9.63819 20 9.67569 20.0375 9.67569C20.075 9.67569 20.075 9.67569 20.1125 9.71319H20.225H20.3C20.4125 9.71319 20.5625 9.67569 20.675 9.63819C20.675 9.63819 20.7125 9.63819 20.7125 9.60069C20.75 9.56319 20.7875 9.56319 20.825 9.52569L20.8625 9.48819C20.9 9.45069 20.9375 9.45069 20.9375 9.41319L23.45 6.75063C23.825 6.37563 23.7875 5.77563 23.4125 5.43812C23.075 5.10063 22.475 5.10063 22.1375 5.47562L22.1374 5.47559Z" fill="#141C36"/>
</svg>
