<svg width="24" height="25" viewBox="0 0 24 25" fill="none" xmlns="http://www.w3.org/2000/svg">
<g id="menu-kabob">
<path id="Union" fill-rule="evenodd" clip-rule="evenodd" d="M19 10.119C20.1046 10.119 21 11.0144 21 12.119C21 13.2236 20.1046 14.119 19 14.119C17.8954 14.119 17 13.2236 17 12.119C17 11.0144 17.8954 10.119 19 10.119ZM12 10.119C13.1046 10.119 14 11.0144 14 12.119C14 13.2236 13.1046 14.119 12 14.119C10.8954 14.119 10 13.2236 10 12.119C10 11.0144 10.8954 10.119 12 10.119ZM7 12.119C7 11.0144 6.10457 10.119 5 10.119C3.89543 10.119 3 11.0144 3 12.119C3 13.2236 3.89543 14.119 5 14.119C6.10457 14.119 7 13.2236 7 12.119Z" fill="#272727"/>
</g>
</svg>
