<svg width="24" height="24" viewBox="0 0 24 24" fill="none" xmlns="http://www.w3.org/2000/svg">
<g id="notes">
<path id="Union" fill-rule="evenodd" clip-rule="evenodd" d="M20.1084 3.32471C20.3163 3.1168 20.5983 3 20.8923 3C21.1864 3 21.4684 3.1168 21.6763 3.32471C21.8842 3.53263 22.001 3.81462 22.001 4.10866C22.001 4.40269 21.8842 4.68469 21.6763 4.8926L12.4289 14.14L10.3385 14.6627L10.8611 12.5721L20.1084 3.32471ZM20.8923 1C20.0679 1 19.2772 1.32752 18.6942 1.91051L9.25102 11.3538C9.12286 11.482 9.03195 11.6425 8.98799 11.8184L7.99397 15.7945C7.90878 16.1353 8.00863 16.4958 8.25701 16.7441C8.50539 16.9925 8.86587 17.0924 9.20665 17.0072L13.1827 16.0131C13.3586 15.9692 13.5191 15.8783 13.6473 15.7501L23.0905 6.30681C23.6735 5.72382 24.001 4.93312 24.001 4.10866C24.001 3.28419 23.6735 2.4935 23.0905 1.91051C22.5075 1.32752 21.7168 1 20.8923 1ZM4.98804 3.10845C4.19556 3.10845 3.43554 3.42326 2.87517 3.98363C2.31481 4.544 2 5.30403 2 6.09651V20.0129C2 20.8054 2.31481 21.5654 2.87517 22.1258C3.43554 22.6862 4.19556 23.001 4.98804 23.001H18.9043C19.6968 23.001 20.4568 22.6862 21.0172 22.1258C21.5775 21.5654 21.8924 20.8054 21.8924 20.0129V13.0547C21.8924 12.5024 21.4446 12.0547 20.8924 12.0547C20.3401 12.0547 19.8924 12.5024 19.8924 13.0547V20.0129C19.8924 20.275 19.7883 20.5263 19.603 20.7116C19.4177 20.8969 19.1664 21.001 18.9043 21.001H4.98804C4.726 21.001 4.47469 20.8969 4.28939 20.7116C4.1041 20.5263 4 20.275 4 20.0129V6.09651C4 5.83445 4.1041 5.58314 4.28939 5.39784C4.47469 5.21254 4.726 5.10845 4.98804 5.10845H11.9462C12.4985 5.10845 12.9462 4.66073 12.9462 4.10845C12.9462 3.55616 12.4985 3.10845 11.9462 3.10845H4.98804Z" fill="#0073C4"/>
</g>
</svg>
