<svg width="22" height="24" viewBox="0 0 22 24" fill="none" xmlns="http://www.w3.org/2000/svg">
<path d="M20.4403 11.55L11.2503 20.74C10.1244 21.8658 8.59747 22.4983 7.00529 22.4983C5.41311 22.4983 3.88613 21.8658 2.76029 20.74C1.63445 19.6141 1.00195 18.0872 1.00195 16.495C1.00195 14.9028 1.63445 13.3758 2.76029 12.25L11.9503 3.05998C12.7009 2.30942 13.7188 1.88776 14.7803 1.88776C15.8417 1.88776 16.8597 2.30942 17.6103 3.05998C18.3609 3.81054 18.7825 4.82852 18.7825 5.88998C18.7825 6.95144 18.3609 7.96942 17.6103 8.71998L8.41029 17.91C8.03501 18.2853 7.52602 18.4961 6.99529 18.4961C6.46456 18.4961 5.95557 18.2853 5.58029 17.91C5.20501 17.5347 4.99418 17.0257 4.99418 16.495C4.99418 15.9643 5.20501 15.4553 5.58029 15.08L14.0703 6.59998" stroke="#141C36" stroke-width="2" stroke-linecap="round" stroke-linejoin="round"/>
</svg>
