<svg width="25" height="24" viewBox="0 0 25 24" fill="none" xmlns="http://www.w3.org/2000/svg">
<path d="M10.48 4.86696L2.22167 0.131999C1.56709 -0.243089 0.75 0.225857 0.75 0.976144V10.446C0.75 11.1963 1.56709 11.6653 2.22167 11.2902L10.48 6.55525C11.1354 6.18004 11.1354 5.24217 10.48 4.86696Z" fill="#141C36"/>
<path d="M15.6546 0.131999L23.9129 4.86696C24.5671 5.24217 24.5671 6.18004 23.9129 6.55525L15.6546 11.2902C15 11.6653 14.1817 11.1963 14.1817 10.446V0.976144C14.1817 0.225857 15 -0.243089 15.6546 0.131999Z" fill="#141C36"/>
<path d="M17.2042 16.4671L8.94583 11.7321C8.29124 11.3569 7.47292 11.8259 7.47292 12.5762V22.0461C7.47292 22.7964 8.29124 23.2653 8.94583 22.8902L17.2042 18.1552C17.8583 17.7802 17.8583 16.8422 17.2042 16.4671Z" fill="#141C36"/>
</svg>
