<svg width="25" height="24" viewBox="0 0 25 24" fill="none" xmlns="http://www.w3.org/2000/svg">
<path d="M4.93134 17.9543C4.11921 18.0963 3.50019 18.8029 3.50019 19.654C3.50019 20.6081 4.27581 21.3853 5.23071 21.3853H19.7695C20.7244 21.3853 21.5 20.6089 21.5 19.6548C21.5 18.8029 20.881 18.0971 20.0688 17.9543C19.9074 16.683 19.2916 15.5041 18.3156 14.6507L14.9364 11.6927L18.3162 8.73547C19.2922 7.88197 19.9088 6.70312 20.0695 5.43185C20.8808 5.28906 21.4998 4.58242 21.4998 3.73134C21.4998 2.77722 20.7242 2 19.7693 2H5.23053C4.2756 2 3.5 2.77724 3.5 3.73134C3.5 4.58323 4.11904 5.28906 4.93115 5.43185C5.09098 6.70237 5.7084 7.88122 6.6844 8.73547L10.0636 11.6927L6.6844 14.6498C5.7084 15.5042 5.09098 16.683 4.93115 17.9543H4.93134ZM19.7694 20.0004H5.23063C5.03997 20.0004 4.88419 19.8455 4.88419 19.654C4.88419 19.4633 5.03997 19.3084 5.23063 19.3084H19.7702C19.9609 19.3084 20.1167 19.4633 20.1167 19.6548C20.1158 19.8455 19.9601 20.0004 19.7694 20.0004H19.7694ZM5.23063 3.38471H19.7694C19.96 3.38471 20.1158 3.53967 20.1158 3.73115C20.1158 3.92181 19.9601 4.07678 19.7694 4.07678H5.23063C5.03997 4.07678 4.88419 3.92182 4.88419 3.73115C4.88419 3.53968 5.03997 3.38471 5.23063 3.38471ZM11.571 12.2135C11.7219 12.082 11.8079 11.893 11.8079 11.6926C11.8079 11.4922 11.7219 11.3032 11.571 11.1718L7.59546 7.69284C6.92857 7.1095 6.48641 6.32009 6.33144 5.46176H18.6682C18.5124 6.32013 18.0711 7.10954 17.4042 7.69284L13.4287 11.1709C13.2778 11.3032 13.1918 11.4922 13.1918 11.6926C13.1918 11.893 13.2778 12.082 13.4287 12.2135L17.4042 15.6915C18.0711 16.2757 18.5132 17.0651 18.6682 17.9234H6.33144C6.48722 17.0651 6.92857 16.2757 7.59546 15.6924L11.571 12.2135Z" fill="#141C36"/>
</svg>
